<svg width="1728" height="273" viewBox="0 0 1728 273" fill="none" xmlns="http://www.w3.org/2000/svg">
  <path
    d="M0 255.094C14.2314 243.226 28.032 230.787 42.5941 219.34C46.7868 216.208 51.2478 213.416 56.0612 211.404C92.5735 196.465 62.3842 252.329 57.8229 266.018C55.2129 272.651 59.6116 266.513 61.1727 264.455C114.914 190.208 150.868 200.593 231.706 202.848C288.537 204.511 277.422 142.385 234.322 155.487C223.828 158.287 211.447 167.418 224.158 177.153C235.66 185.997 253.61 181.791 260.047 168.614C263.649 161.436 257.277 160.83 252.025 163.378C191.605 196.298 161.053 288.736 173.593 354.294C177.615 375.324 186.218 396.45 202.601 409.837C223.069 426.562 253.201 427.998 276.943 416.656C300.684 405.313 318.165 382.745 327.443 357.714C338.378 328.208 343.902 283.907 332.839 253.514C328.218 240.813 321.271 229.155 314.466 217.522C305.032 201.398 295.752 185.086 288.862 167.67C278.447 141.341 273.688 112.276 277.417 84.0045C280.599 59.8838 307.468 54.4659 326.125 65.8912C341.403 74.9423 330.608 90.8918 318.211 84.6161C313.946 81.9763 311.783 76.301 307.148 74.0375C301.058 70.966 294.229 75.5788 291.751 81.4478C289.572 86.2099 289.141 91.7911 288.984 97.0431C288.374 117.575 291.605 138.973 298.375 158.306C304.078 174.591 315.875 200.906 332.977 207.751C345.113 212.61 358.599 205.12 366.89 196.074C375.116 187.098 379.021 174.865 381.284 162.792C385.596 139.764 386.669 116.097 385.829 92.6655C385.615 86.7301 385.246 80.3437 381.607 75.7116C370.985 62.1999 362.638 84.7655 352.163 82.6404C345.476 80.2302 348.975 70.8194 353.331 67.5182C365.681 56.8705 388.482 53.9457 394.239 72.7231C397.692 82.0676 397.562 92.3196 397.922 102.17C398.085 115.336 397.036 128.497 395.353 141.549C392.38 163.716 388.474 187.936 373.882 205.303C364.448 217.58 342.227 227.982 344.552 245.876C353.171 273.154 390.109 236.59 401.597 227.484C438.283 193.778 480.218 164.898 527.127 149.515C543.57 144.125 693.235 105.375 617.329 260.37C617.329 260.37 893.654 -16.0783 856.334 140.852C855.32 145.113 851.12 147.739 846.938 146.743L836.858 144.341C834.631 143.81 832.392 145.165 831.779 147.415L792.058 293.271L776.94 286.981C774.658 286.032 772.065 287.25 771.284 289.638L768.276 298.852C767.558 301.052 768.652 303.437 770.766 304.284L800.124 316.039C802.078 316.822 803.184 318.939 802.731 321.031L795.178 356.034C794.649 358.477 792.221 359.966 789.86 359.291L780.122 356.507C777.97 355.893 775.715 357.077 774.959 359.227L771.382 369.374C770.552 371.724 771.823 374.3 774.165 375.019L818.331 388.608C820.475 389.267 822.751 388.124 823.548 385.988L826.378 378.403C827.202 376.192 826.147 373.713 824.001 372.819L808.528 366.383L822.871 325.115C823.651 322.865 826.063 321.678 828.275 322.45L855.868 332.104C858.058 332.871 860.445 331.714 861.25 329.501L865.736 317.168C866.568 314.885 865.4 312.347 863.148 311.542L848.566 306.321C846.442 305.56 845.263 303.244 845.873 301.033L884.786 159.748C885.396 157.537 884.22 155.227 882.1 154.463L878.165 153.043C875.777 152.183 874.644 149.399 875.734 147.064L878.859 140.365C879.935 138.06 878.845 135.309 876.506 134.415C872.436 132.857 870.227 128.364 871.438 124.1C879.957 94.0878 915.255 -13.7041 978.249 5.21172C1051.29 27.1464 973.953 232.589 953.902 232.589C933.852 232.589 1012.62 110.491 1132.21 149.972C1251.8 189.453 1178.76 285.96 1165.87 286.691C1152.98 287.421 1218.86 119.266 1351.34 143.392C1483.82 167.518 1401.1 295.465 1399.85 205.538C1398.6 115.61 1514.61 107.569 1528.21 173.368C1541.1 235.716 1491.63 339.412 1421.23 381.223C1414.03 385.498 1405.16 385.642 1397.86 381.563C1363.29 362.271 1262.66 297.026 1263.26 191.644C1263.97 64.4302 1406.29 74.9063 1411.49 126.573C1411.49 126.573 1482.38 36.6458 1575.47 105.372C1668.56 174.098 1564.01 322.514 1564.01 322.514C1564.01 322.514 1617.72 233.817 1728 236.858"
    stroke="#DCEEFA" stroke-width="5" stroke-linecap="round" stroke-linejoin="round"/>
</svg>
