<svg width="364" height="150" viewBox="0 0 364 150" fill="none" xmlns="http://www.w3.org/2000/svg">
  <g clip-path="url(#clip0_152_10)">
    <path d="M0.75 12C0.75 5.37258 6.12258 0 12.75 0H351.5C358.127 0 363.5 5.37258 363.5 12V150H0.75V12Z"
          fill="#DCEEFA"/>
    <mask id="path-2-outside-1_152_10" maskUnits="userSpaceOnUse" x="148.096" y="23.2793" width="82" height="26"
          fill="black">
      <rect fill="white" x="148.096" y="23.2793" width="82" height="26"/>
      <path
        d="M150.702 48.0346C150.495 48.0346 150.288 47.9226 150.176 47.733C150.012 47.4486 150.107 47.078 150.4 46.9057C155.409 44.0186 159.488 40.8557 162.48 37.5722C161.85 35.4694 161.531 33.3666 161.497 31.755C161.462 30.1262 161.393 27.0926 163.514 25.6533C164.256 25.1449 165.247 24.8691 166.213 24.8863C167.256 24.9036 168.144 25.2655 168.662 25.886C170.084 27.5838 168.481 30.695 167.524 32.5565C166.601 34.349 165.359 36.1416 163.825 37.8911C164.083 38.6495 164.368 39.382 164.696 40.0629C166.489 43.8376 168.567 44.777 169.998 44.8976C171.947 45.0614 173.904 43.8807 175.844 41.3814C175.077 39.2183 174.672 36.8052 174.361 34.9782C173.835 31.8584 173.111 27.5838 175.715 25.5672C176.465 24.9898 177.482 24.6192 178.508 24.5588C179.612 24.4899 180.595 24.7743 181.276 25.3603C183.82 27.5407 181.483 33.1942 180.716 35.0471C179.716 37.4688 178.603 39.5716 177.396 41.2866C177.327 41.3901 177.25 41.4935 177.181 41.5883C177.905 43.4067 178.905 44.8804 180.371 45.3199C182.88 46.0697 186.243 43.4929 188.967 39.8043C188.002 37.8394 187.338 35.7366 187.044 33.8923C186.932 33.1856 186.674 31.5223 186.794 29.8073C186.95 27.5666 187.691 25.9808 189.002 25.0932C190.355 24.171 192.64 23.8866 193.968 25.0156C195.917 26.6789 194.744 30.4623 194.175 32.2807C193.416 34.7196 192.054 37.4602 190.364 39.8991C191.985 42.9413 194.348 45.4923 197.055 45.6302C199.262 45.7422 201.263 44.1737 202.556 42.8379C202.754 42.6311 202.953 42.4156 203.151 42.1829C202.496 40.8213 201.944 39.201 201.556 37.4947C200.995 35.0385 200.806 32.5479 201.013 30.4881C201.263 28.0923 202.047 26.3428 203.28 25.4379C203.979 24.9294 204.85 24.6623 205.876 24.6364C207.324 24.4468 208.402 24.6967 209.092 25.3862C209.945 26.2308 210.256 27.8251 209.98 29.9969C209.738 31.9187 209.066 34.2112 208.066 36.4691C207.1 38.6667 205.884 40.692 204.574 42.338C205.522 44.0703 206.626 45.182 207.721 45.3802C209.618 45.7336 212.454 43.4584 215.05 39.6061C214.955 39.451 214.869 39.2872 214.782 39.1235C213.472 36.6501 212.842 33.8664 213.023 31.3068C213.136 29.7125 213.644 25.9119 216.024 25.1276C217.257 24.7226 218.938 25.2224 219.766 26.2308C221.628 28.4973 219.783 34.0646 217.128 38.5719C216.921 38.9253 216.705 39.2786 216.481 39.632C217.757 41.6055 219.456 43.174 221.456 44.2082C223.422 45.2251 225.621 45.7077 227.992 45.6388C228.319 45.6302 228.604 45.8887 228.613 46.2248C228.621 46.5609 228.362 46.8367 228.026 46.8453C225.448 46.9229 223.051 46.3972 220.896 45.2768C218.852 44.2168 217.102 42.6569 215.748 40.7178C213.334 44.1651 210.213 47.078 207.497 46.5782C206.177 46.3369 204.901 45.2424 203.798 43.4239C203.78 43.3895 203.754 43.355 203.737 43.3205C203.625 43.4412 203.513 43.5618 203.401 43.6739C201.297 45.8456 199.081 46.9401 196.969 46.8367C193.942 46.6816 191.356 44.122 189.554 40.9764C186.7 44.7167 183.121 47.4055 179.991 46.4748C178.302 45.9663 177.138 44.4926 176.301 42.6655C174.223 45.1303 172.05 46.2852 169.834 46.0956C166.446 45.8112 164.17 42.519 162.842 38.8908C162.773 38.9597 162.704 39.0373 162.635 39.1062C159.626 42.226 155.694 45.1993 150.926 47.9485C150.831 48.0002 150.727 48.026 150.624 48.026L150.702 48.0346ZM206.824 25.7826C206.591 25.7826 206.333 25.7999 206.057 25.8343C206.031 25.8343 206.014 25.8343 205.988 25.8343C205.186 25.8516 204.548 26.0325 204.048 26.4031C202.159 27.782 201.642 32.2204 202.78 37.2103C203.108 38.6581 203.539 39.9853 204.039 41.1229C205.151 39.6406 206.177 37.8739 207.022 35.9692C208.954 31.6085 209.497 27.4201 208.298 26.2308C207.988 25.9291 207.497 25.774 206.824 25.774V25.7826ZM178.845 25.7568C178.026 25.7568 177.129 26.0153 176.482 26.5152C174.447 28.0837 175.103 31.9446 175.577 34.7713C175.836 36.3226 176.172 38.322 176.732 40.1663C177.776 38.6064 178.75 36.7276 179.638 34.5817C181.923 29.0403 181.38 27.0064 180.526 26.2652C180.121 25.9205 179.509 25.7481 178.845 25.7481V25.7568ZM191.752 25.4724C191.062 25.4724 190.312 25.6792 189.726 26.0843C188.148 27.1529 187.657 29.7211 188.286 33.7027C188.528 35.2195 189.053 36.969 189.812 38.6581C191.2 36.5553 192.364 34.1939 193.071 31.9187C193.52 30.4709 194.572 27.084 193.227 25.9291C192.873 25.6275 192.339 25.481 191.752 25.481V25.4724ZM217.033 26.1877C216.834 26.1877 216.636 26.2135 216.464 26.2739C215.541 26.5755 215.015 27.7993 214.731 28.7645C214.506 29.5315 214.351 30.4623 214.291 31.3844C214.127 33.6941 214.688 36.1933 215.86 38.4513C215.955 38.2875 216.058 38.1238 216.153 37.96C218.956 33.2028 220.137 28.4973 218.904 26.9978C218.499 26.5065 217.723 26.1877 217.041 26.1877H217.033ZM166.153 26.0843C165.489 26.0843 164.765 26.2739 164.204 26.6531C162.626 27.7217 162.678 30.2296 162.712 31.7291C162.747 33.2287 162.997 34.892 163.428 36.495C164.67 35.0126 165.687 33.5045 166.463 31.9963C167.179 30.6174 168.662 27.7389 167.748 26.6531C167.429 26.2739 166.817 26.0843 166.153 26.0843Z"/>
    </mask>
    <path
      d="M150.702 48.0346C150.495 48.0346 150.288 47.9226 150.176 47.733C150.012 47.4486 150.107 47.078 150.4 46.9057C155.409 44.0186 159.488 40.8557 162.48 37.5722C161.85 35.4694 161.531 33.3666 161.497 31.755C161.462 30.1262 161.393 27.0926 163.514 25.6533C164.256 25.1449 165.247 24.8691 166.213 24.8863C167.256 24.9036 168.144 25.2655 168.662 25.886C170.084 27.5838 168.481 30.695 167.524 32.5565C166.601 34.349 165.359 36.1416 163.825 37.8911C164.083 38.6495 164.368 39.382 164.696 40.0629C166.489 43.8376 168.567 44.777 169.998 44.8976C171.947 45.0614 173.904 43.8807 175.844 41.3814C175.077 39.2183 174.672 36.8052 174.361 34.9782C173.835 31.8584 173.111 27.5838 175.715 25.5672C176.465 24.9898 177.482 24.6192 178.508 24.5588C179.612 24.4899 180.595 24.7743 181.276 25.3603C183.82 27.5407 181.483 33.1942 180.716 35.0471C179.716 37.4688 178.603 39.5716 177.396 41.2866C177.327 41.3901 177.25 41.4935 177.181 41.5883C177.905 43.4067 178.905 44.8804 180.371 45.3199C182.88 46.0697 186.243 43.4929 188.967 39.8043C188.002 37.8394 187.338 35.7366 187.044 33.8923C186.932 33.1856 186.674 31.5223 186.794 29.8073C186.95 27.5666 187.691 25.9808 189.002 25.0932C190.355 24.171 192.64 23.8866 193.968 25.0156C195.917 26.6789 194.744 30.4623 194.175 32.2807C193.416 34.7196 192.054 37.4602 190.364 39.8991C191.985 42.9413 194.348 45.4923 197.055 45.6302C199.262 45.7422 201.263 44.1737 202.556 42.8379C202.754 42.6311 202.953 42.4156 203.151 42.1829C202.496 40.8213 201.944 39.201 201.556 37.4947C200.995 35.0385 200.806 32.5479 201.013 30.4881C201.263 28.0923 202.047 26.3428 203.28 25.4379C203.979 24.9294 204.85 24.6623 205.876 24.6364C207.324 24.4468 208.402 24.6967 209.092 25.3862C209.945 26.2308 210.256 27.8251 209.98 29.9969C209.738 31.9187 209.066 34.2112 208.066 36.4691C207.1 38.6667 205.884 40.692 204.574 42.338C205.522 44.0703 206.626 45.182 207.721 45.3802C209.618 45.7336 212.454 43.4584 215.05 39.6061C214.955 39.451 214.869 39.2872 214.782 39.1235C213.472 36.6501 212.842 33.8664 213.023 31.3068C213.136 29.7125 213.644 25.9119 216.024 25.1276C217.257 24.7226 218.938 25.2224 219.766 26.2308C221.628 28.4973 219.783 34.0646 217.128 38.5719C216.921 38.9253 216.705 39.2786 216.481 39.632C217.757 41.6055 219.456 43.174 221.456 44.2082C223.422 45.2251 225.621 45.7077 227.992 45.6388C228.319 45.6302 228.604 45.8887 228.613 46.2248C228.621 46.5609 228.362 46.8367 228.026 46.8453C225.448 46.9229 223.051 46.3972 220.896 45.2768C218.852 44.2168 217.102 42.6569 215.748 40.7178C213.334 44.1651 210.213 47.078 207.497 46.5782C206.177 46.3369 204.901 45.2424 203.798 43.4239C203.78 43.3895 203.754 43.355 203.737 43.3205C203.625 43.4412 203.513 43.5618 203.401 43.6739C201.297 45.8456 199.081 46.9401 196.969 46.8367C193.942 46.6816 191.356 44.122 189.554 40.9764C186.7 44.7167 183.121 47.4055 179.991 46.4748C178.302 45.9663 177.138 44.4926 176.301 42.6655C174.223 45.1303 172.05 46.2852 169.834 46.0956C166.446 45.8112 164.17 42.519 162.842 38.8908C162.773 38.9597 162.704 39.0373 162.635 39.1062C159.626 42.226 155.694 45.1993 150.926 47.9485C150.831 48.0002 150.727 48.026 150.624 48.026L150.702 48.0346ZM206.824 25.7826C206.591 25.7826 206.333 25.7999 206.057 25.8343C206.031 25.8343 206.014 25.8343 205.988 25.8343C205.186 25.8516 204.548 26.0325 204.048 26.4031C202.159 27.782 201.642 32.2204 202.78 37.2103C203.108 38.6581 203.539 39.9853 204.039 41.1229C205.151 39.6406 206.177 37.8739 207.022 35.9692C208.954 31.6085 209.497 27.4201 208.298 26.2308C207.988 25.9291 207.497 25.774 206.824 25.774V25.7826ZM178.845 25.7568C178.026 25.7568 177.129 26.0153 176.482 26.5152C174.447 28.0837 175.103 31.9446 175.577 34.7713C175.836 36.3226 176.172 38.322 176.732 40.1663C177.776 38.6064 178.75 36.7276 179.638 34.5817C181.923 29.0403 181.38 27.0064 180.526 26.2652C180.121 25.9205 179.509 25.7481 178.845 25.7481V25.7568ZM191.752 25.4724C191.062 25.4724 190.312 25.6792 189.726 26.0843C188.148 27.1529 187.657 29.7211 188.286 33.7027C188.528 35.2195 189.053 36.969 189.812 38.6581C191.2 36.5553 192.364 34.1939 193.071 31.9187C193.52 30.4709 194.572 27.084 193.227 25.9291C192.873 25.6275 192.339 25.481 191.752 25.481V25.4724ZM217.033 26.1877C216.834 26.1877 216.636 26.2135 216.464 26.2739C215.541 26.5755 215.015 27.7993 214.731 28.7645C214.506 29.5315 214.351 30.4623 214.291 31.3844C214.127 33.6941 214.688 36.1933 215.86 38.4513C215.955 38.2875 216.058 38.1238 216.153 37.96C218.956 33.2028 220.137 28.4973 218.904 26.9978C218.499 26.5065 217.723 26.1877 217.041 26.1877H217.033ZM166.153 26.0843C165.489 26.0843 164.765 26.2739 164.204 26.6531C162.626 27.7217 162.678 30.2296 162.712 31.7291C162.747 33.2287 162.997 34.892 163.428 36.495C164.67 35.0126 165.687 33.5045 166.463 31.9963C167.179 30.6174 168.662 27.7389 167.748 26.6531C167.429 26.2739 166.817 26.0843 166.153 26.0843Z"
      fill="#263A99"/>
    <path
      d="M150.702 48.0346C150.495 48.0346 150.288 47.9226 150.176 47.733C150.012 47.4486 150.107 47.078 150.4 46.9057C155.409 44.0186 159.488 40.8557 162.48 37.5722C161.85 35.4694 161.531 33.3666 161.497 31.755C161.462 30.1262 161.393 27.0926 163.514 25.6533C164.256 25.1449 165.247 24.8691 166.213 24.8863C167.256 24.9036 168.144 25.2655 168.662 25.886C170.084 27.5838 168.481 30.695 167.524 32.5565C166.601 34.349 165.359 36.1416 163.825 37.8911C164.083 38.6495 164.368 39.382 164.696 40.0629C166.489 43.8376 168.567 44.777 169.998 44.8976C171.947 45.0614 173.904 43.8807 175.844 41.3814C175.077 39.2183 174.672 36.8052 174.361 34.9782C173.835 31.8584 173.111 27.5838 175.715 25.5672C176.465 24.9898 177.482 24.6192 178.508 24.5588C179.612 24.4899 180.595 24.7743 181.276 25.3603C183.82 27.5407 181.483 33.1942 180.716 35.0471C179.716 37.4688 178.603 39.5716 177.396 41.2866C177.327 41.3901 177.25 41.4935 177.181 41.5883C177.905 43.4067 178.905 44.8804 180.371 45.3199C182.88 46.0697 186.243 43.4929 188.967 39.8043C188.002 37.8394 187.338 35.7366 187.044 33.8923C186.932 33.1856 186.674 31.5223 186.794 29.8073C186.95 27.5666 187.691 25.9808 189.002 25.0932C190.355 24.171 192.64 23.8866 193.968 25.0156C195.917 26.6789 194.744 30.4623 194.175 32.2807C193.416 34.7196 192.054 37.4602 190.364 39.8991C191.985 42.9413 194.348 45.4923 197.055 45.6302C199.262 45.7422 201.263 44.1737 202.556 42.8379C202.754 42.6311 202.953 42.4156 203.151 42.1829C202.496 40.8213 201.944 39.201 201.556 37.4947C200.995 35.0385 200.806 32.5479 201.013 30.4881C201.263 28.0923 202.047 26.3428 203.28 25.4379C203.979 24.9294 204.85 24.6623 205.876 24.6364C207.324 24.4468 208.402 24.6967 209.092 25.3862C209.945 26.2308 210.256 27.8251 209.98 29.9969C209.738 31.9187 209.066 34.2112 208.066 36.4691C207.1 38.6667 205.884 40.692 204.574 42.338C205.522 44.0703 206.626 45.182 207.721 45.3802C209.618 45.7336 212.454 43.4584 215.05 39.6061C214.955 39.451 214.869 39.2872 214.782 39.1235C213.472 36.6501 212.842 33.8664 213.023 31.3068C213.136 29.7125 213.644 25.9119 216.024 25.1276C217.257 24.7226 218.938 25.2224 219.766 26.2308C221.628 28.4973 219.783 34.0646 217.128 38.5719C216.921 38.9253 216.705 39.2786 216.481 39.632C217.757 41.6055 219.456 43.174 221.456 44.2082C223.422 45.2251 225.621 45.7077 227.992 45.6388C228.319 45.6302 228.604 45.8887 228.613 46.2248C228.621 46.5609 228.362 46.8367 228.026 46.8453C225.448 46.9229 223.051 46.3972 220.896 45.2768C218.852 44.2168 217.102 42.6569 215.748 40.7178C213.334 44.1651 210.213 47.078 207.497 46.5782C206.177 46.3369 204.901 45.2424 203.798 43.4239C203.78 43.3895 203.754 43.355 203.737 43.3205C203.625 43.4412 203.513 43.5618 203.401 43.6739C201.297 45.8456 199.081 46.9401 196.969 46.8367C193.942 46.6816 191.356 44.122 189.554 40.9764C186.7 44.7167 183.121 47.4055 179.991 46.4748C178.302 45.9663 177.138 44.4926 176.301 42.6655C174.223 45.1303 172.05 46.2852 169.834 46.0956C166.446 45.8112 164.17 42.519 162.842 38.8908C162.773 38.9597 162.704 39.0373 162.635 39.1062C159.626 42.226 155.694 45.1993 150.926 47.9485C150.831 48.0002 150.727 48.026 150.624 48.026L150.702 48.0346ZM206.824 25.7826C206.591 25.7826 206.333 25.7999 206.057 25.8343C206.031 25.8343 206.014 25.8343 205.988 25.8343C205.186 25.8516 204.548 26.0325 204.048 26.4031C202.159 27.782 201.642 32.2204 202.78 37.2103C203.108 38.6581 203.539 39.9853 204.039 41.1229C205.151 39.6406 206.177 37.8739 207.022 35.9692C208.954 31.6085 209.497 27.4201 208.298 26.2308C207.988 25.9291 207.497 25.774 206.824 25.774V25.7826ZM178.845 25.7568C178.026 25.7568 177.129 26.0153 176.482 26.5152C174.447 28.0837 175.103 31.9446 175.577 34.7713C175.836 36.3226 176.172 38.322 176.732 40.1663C177.776 38.6064 178.75 36.7276 179.638 34.5817C181.923 29.0403 181.38 27.0064 180.526 26.2652C180.121 25.9205 179.509 25.7481 178.845 25.7481V25.7568ZM191.752 25.4724C191.062 25.4724 190.312 25.6792 189.726 26.0843C188.148 27.1529 187.657 29.7211 188.286 33.7027C188.528 35.2195 189.053 36.969 189.812 38.6581C191.2 36.5553 192.364 34.1939 193.071 31.9187C193.52 30.4709 194.572 27.084 193.227 25.9291C192.873 25.6275 192.339 25.481 191.752 25.481V25.4724ZM217.033 26.1877C216.834 26.1877 216.636 26.2135 216.464 26.2739C215.541 26.5755 215.015 27.7993 214.731 28.7645C214.506 29.5315 214.351 30.4623 214.291 31.3844C214.127 33.6941 214.688 36.1933 215.86 38.4513C215.955 38.2875 216.058 38.1238 216.153 37.96C218.956 33.2028 220.137 28.4973 218.904 26.9978C218.499 26.5065 217.723 26.1877 217.041 26.1877H217.033ZM166.153 26.0843C165.489 26.0843 164.765 26.2739 164.204 26.6531C162.626 27.7217 162.678 30.2296 162.712 31.7291C162.747 33.2287 162.997 34.892 163.428 36.495C164.67 35.0126 165.687 33.5045 166.463 31.9963C167.179 30.6174 168.662 27.7389 167.748 26.6531C167.429 26.2739 166.817 26.0843 166.153 26.0843Z"
      stroke="#284092" stroke-width="2" mask="url(#path-2-outside-1_152_10)"/>
    <path
      d="M192.332 127.748C192.384 126.896 192.451 126.161 192.51 125.612C192.545 125.284 192.576 125.021 192.599 124.839C192.611 124.748 192.62 124.677 192.626 124.628L192.632 124.585V124.578L192.637 124.541C192.901 122.777 194.441 121.376 196.973 120.198L192.332 127.748ZM192.332 127.748C190.256 127.633 188.132 127.646 186.138 127.726H185.95H185.941L185.933 127.727C182.55 127.838 176.82 128.037 171.634 129.459C165.552 131.121 161.398 134.149 159.429 138.508C158.14 141.353 157.791 144.696 158.383 148.175C158.939 151.451 160.335 154.624 162.312 157.115L162.312 157.115C164.685 160.099 168.69 161.667 174.465 162.621C180.244 163.576 187.925 163.935 197.771 164.395L197.799 164.396L197.811 164.397H197.822C197.819 164.397 197.907 164.401 198.124 164.408C198.326 164.416 198.618 164.426 198.989 164.435C199.484 164.448 200.118 164.461 200.863 164.468L200.832 164.5H202.039C204.496 164.5 207.769 164.431 211.167 164.154C215.882 163.773 219.736 163.105 222.693 162.146C225.64 161.19 227.762 159.926 228.931 158.304C228.931 158.304 228.932 158.303 228.932 158.303L228.526 158.01L192.332 127.748ZM196.042 140.823C197.718 141.606 200.039 141.322 201.744 140.201C202.912 139.438 203.837 138.227 204.369 136.804L204.37 136.804C204.882 135.432 204.981 133.967 204.582 132.781C204.032 131.142 202.573 130.028 200.725 129.275C198.991 128.568 196.839 128.146 194.555 127.912C194.604 127.099 194.669 126.393 194.724 125.865C194.757 125.551 194.787 125.3 194.809 125.127C194.819 125.04 194.828 124.973 194.834 124.927L194.841 124.872L194.843 124.854C194.935 124.289 195.477 123.403 197.518 122.38C199.554 121.359 202.971 120.26 208.57 119.221C214.263 118.169 221.735 117.271 230.903 116.547C230.845 125.87 230.372 135.719 229.02 153.35C229.017 153.374 229.007 153.412 228.99 153.459C228.984 153.477 228.977 153.494 228.971 153.509C228.961 153.532 228.953 153.549 228.95 153.555C228.939 153.577 228.897 153.656 228.872 153.749C228.869 153.759 228.863 153.776 228.854 153.801C228.837 153.85 228.81 153.922 228.774 154.016C228.702 154.202 228.594 154.467 228.45 154.781C228.162 155.41 227.738 156.224 227.189 156.986C226.329 158.175 224.554 159.241 221.81 160.097C219.084 160.948 215.476 161.569 211.052 161.925L211.052 161.925C204.667 162.441 198.744 162.221 197.982 162.193C197.957 162.192 197.937 162.191 197.923 162.191V162.191C187.04 161.682 180.09 161.312 174.719 160.422C169.084 159.487 165.864 158.013 164.061 155.743L164.061 155.743C162.314 153.546 161.079 150.73 160.575 147.799C160.047 144.728 160.361 141.832 161.452 139.411L161.453 139.41C162.334 137.443 163.778 135.763 165.754 134.413C167.465 133.245 169.644 132.283 172.225 131.578L172.225 131.578C177.137 130.236 182.658 130.037 186.004 129.916L186.01 129.916H186.2H186.208L186.217 129.915C187.195 129.881 188.137 129.864 189.045 129.864H189.071C190.21 129.864 191.282 129.889 192.288 129.946C192.283 130.524 192.293 131.12 192.313 131.725L192.313 131.727C192.405 134.14 192.746 136.125 193.351 137.645C193.956 139.169 194.843 140.265 196.042 140.823ZM196.042 140.823C196.042 140.823 196.042 140.823 196.042 140.823L196.253 140.369L196.041 140.822C196.042 140.822 196.042 140.822 196.042 140.823ZM163.288 100.334L163.287 100.328C163.256 100.123 163.058 99.6154 161.916 98.9492C160.777 98.2848 158.772 97.5078 155.293 96.7413C153.792 96.413 152.088 96.0985 150.187 95.8044C149.852 101.773 149.725 107.128 150.152 111.098C150.373 113.147 150.737 114.786 151.272 115.94C151.806 117.091 152.466 117.675 153.249 117.805C153.802 117.895 154.453 117.749 155.18 117.373C155.904 116.999 156.664 116.417 157.411 115.705C158.905 114.281 160.291 112.39 161.189 110.782L163.288 100.334ZM163.288 100.334L163.289 100.336M163.288 100.334L163.289 100.336M163.289 100.336C163.297 100.394 163.476 101.702 163.311 103.627M163.289 100.336L163.311 103.627M163.311 103.627C163.143 105.603 162.615 108.21 161.189 110.781L163.311 103.627ZM148.604 93.374C148.44 93.3512 148.274 93.3284 148.107 93.3058C148.097 93.4731 148.086 93.6398 148.075 93.806C148.242 93.8287 148.408 93.8515 148.572 93.8744C148.583 93.7081 148.593 93.5413 148.604 93.374ZM152.886 120.006C152.887 120.006 152.888 120.007 152.888 120.007L152.969 119.513L152.886 120.006ZM148.442 95.5761L148.512 95.0809L148.012 95.0513C148.003 95.2056 147.994 95.3595 147.985 95.5129C148.139 95.5339 148.291 95.5549 148.442 95.5761ZM231.173 66.8023C231.173 66.7961 231.172 66.7899 231.172 66.7837L230.673 66.822L231.173 66.8214C231.173 66.8151 231.173 66.8087 231.173 66.8023ZM232.571 114.22C232.571 114.387 232.571 114.554 232.57 114.722C232.736 114.709 232.903 114.697 233.07 114.685C233.071 114.517 233.071 114.35 233.071 114.183C232.904 114.196 232.737 114.208 232.571 114.22ZM230.894 154.55C230.897 154.544 230.9 154.538 230.903 154.53C230.905 154.525 230.907 154.52 230.909 154.515L230.911 154.509L230.44 154.339L230.894 154.551L230.894 154.55ZM230.673 153.52L231.172 153.559C231.172 153.558 231.172 153.556 231.172 153.555L230.673 153.52ZM232.608 116.435C232.761 116.424 232.914 116.412 233.068 116.401C233.069 116.247 233.069 116.093 233.07 115.939L232.57 115.937L232.608 116.435ZM500.007 117.565C500.007 117.563 500.007 117.561 500.007 117.56C500.007 117.557 500.007 117.555 500.007 117.553L499.507 117.54L500.007 117.565ZM498.949 116.411C498.948 116.411 498.947 116.411 498.946 116.411C498.945 116.411 498.944 116.411 498.942 116.411L498.93 116.911L498.949 116.411ZM228.865 153.779C228.867 153.771 228.868 153.765 228.869 153.761L228.865 153.779ZM194.46 130.123C196.757 130.37 198.597 130.785 199.946 131.345C201.41 131.952 202.205 132.689 202.469 133.477C202.682 134.118 202.634 135.053 202.288 135.998C201.945 136.935 201.333 137.812 200.505 138.357C199.384 139.094 197.869 139.25 196.947 138.821C196.299 138.517 195.718 137.811 195.278 136.592L194.46 130.123Z"
      fill="#263A99" stroke="#284092"/>
    <path
      d="M149.684 49.0519L149.684 49.0518C149.32 48.7054 149.003 48.1668 148.782 47.1162C148.563 46.0746 148.43 44.4874 148.46 41.9958L148.46 41.9953C148.495 39.3559 148.712 35.9966 149.109 32.024C149.539 27.7225 153.127 24.3934 157.448 24.2744L157.449 24.2744C166.201 24.0503 183.139 23.6452 198.224 23.5331L149.684 49.0519ZM149.684 49.0519L149.688 49.0556M149.684 49.0519L149.688 49.0556M149.688 49.0556C150.017 49.3611 150.416 49.5406 150.865 49.5429M149.688 49.0556L150.865 49.5429M150.865 49.5429V49.5429H150.874V49.5429C150.919 49.5425 150.961 49.5395 150.987 49.5376L150.992 49.5373C151.025 49.5349 151.037 49.5343 151.047 49.5343H151.082L151.116 49.5294C151.398 49.4897 152.471 49.4536 154.226 49.4256C155.96 49.398 158.315 49.3785 161.123 49.3654C166.737 49.3393 174.153 49.3393 181.999 49.3533C197.689 49.3813 215.095 49.4653 223.238 49.5084H223.241H223.241H223.241H223.241H223.241H223.241H223.241H223.242H223.242H223.242H223.242H223.242H223.242H223.242H223.242H223.242H223.242H223.243H223.243H223.243H223.243H223.243H223.243H223.243H223.243H223.243H223.243H223.244H223.244H223.244H223.244H223.244H223.244H223.244H223.244H223.244H223.244H223.244H223.245H223.245H223.245H223.245H223.245H223.245H223.245H223.245H223.245H223.245H223.246H223.246H223.246H223.246H223.246H223.246H223.246H223.246H223.246H223.246H223.246H223.247H223.247H223.247H223.247H223.247H223.247H223.247H223.247H223.247H223.247H223.247H223.247H223.248H223.248H223.248H223.248H223.248H223.248H223.248H223.248H223.248H223.248H223.248H223.249H223.249H223.249H223.249H223.249H223.249H223.249H223.249H223.249H223.249H223.249H223.25H223.25H223.25H223.25H223.25H223.25H223.25H223.25H223.25H223.25H223.25H223.25H223.251H223.251H223.251H223.251H223.251H223.251H223.251H223.251H223.251H223.251H223.251H223.251H223.252H223.252H223.252H223.252H223.252H223.252H223.252H223.252H223.252H223.252H223.252H223.252H223.253H223.253H223.253H223.253H223.253H223.253H223.253H223.253H223.253H223.253H223.253H223.253H223.254H223.254H223.254H223.254H223.254H223.254H223.254H223.254H223.254H223.254H223.254H223.254H223.254H223.255H223.255H223.255H223.255H223.255H223.255H223.255H223.255H223.255H223.255H223.255H223.255H223.256H223.256H223.256H223.256H223.256H223.256H223.256H223.256H223.256H223.256H223.256H223.256H223.256H223.257H223.257H223.257H223.257H223.257H223.257H223.257H223.257H223.257H223.257H223.257H223.257H223.257H223.258H223.258H223.258H223.258H223.258H223.258H223.258H223.258H223.258H223.258H223.258H223.258H223.258H223.259H223.259H223.259H223.259H223.259H223.259H223.259H223.259H223.259H223.259H223.259H223.259H223.259H223.26H223.26H223.26H223.26H223.26H223.26H223.26H223.26H223.26H223.26H223.26H223.26H223.26H223.261H223.261H223.261H223.261H223.261H223.261H223.261H223.261H223.261H223.261H223.261H223.261H223.261H223.262H223.262H223.262H223.262H223.262H223.262H223.262H223.262H223.262H223.262H223.262H223.262H223.262H223.262H223.263H223.263H223.263H223.263H223.263H223.263H223.263H223.263H223.263H223.263H223.263H223.263H223.263H223.264H223.264H223.264H223.264H223.264H223.264H223.264H223.264H223.264H223.264H223.264H223.264H223.264H223.265H223.265H223.265H223.265H223.265H223.265H223.265H223.265H223.265H223.265H223.265H223.265H223.265H223.266H223.266H223.266H223.266H223.266H223.266H223.266H223.266H223.266H223.266H223.266H223.266H223.266H223.267H223.267H223.267H223.267H223.267H223.267H223.267H223.267H223.267H223.267H223.267H223.267H223.267H223.268H223.268H223.268H223.268H223.268H223.268H223.268H223.268H223.268H223.268H223.268H223.268H223.268H223.269H223.269H223.269H223.269H223.269H223.269H223.269H223.269H223.269H223.269H223.269H223.269H223.269H223.27H223.27H223.27H223.27H223.27H223.27H223.27H223.27H223.27H223.27H223.27H223.27H223.271H223.271H223.271H223.271H223.271H223.271H223.271H223.271H223.271H223.271H223.271H223.271H223.271H223.272H223.272H223.272H223.272H223.272H223.272H223.272H223.272H223.272H223.272H223.272H223.272H223.273H223.273H223.273H223.273H223.273H223.273H223.273H223.273H223.273H223.273H223.273H223.273H223.274H223.274H223.274H223.274H223.274H223.274H223.274H223.274H223.274H223.274H223.274H223.274H223.275H223.275H223.275H223.275H223.275H223.275H223.275H223.275H223.275H223.275H223.275H223.275H223.276H223.276H223.276H223.276H223.276H223.276H223.276H223.276H223.276H223.276H223.276H223.277H223.277H223.277H223.277H223.277H223.277H223.277H223.277H223.277H223.277H223.277H223.278H223.278H223.278H223.278H223.278H223.278H223.278H223.278H223.278H223.278H223.278H223.279H223.279H223.279H223.279H223.279H223.279H223.279H223.279H223.279H223.279H223.279H223.28H223.28H223.28H223.28H223.28H223.28H223.28H223.28H223.28H223.28H223.28H223.281H223.281H223.281H223.281H223.281H223.281H223.281H223.281H223.281H223.281H223.282H223.282H223.282H223.282H223.282H223.282H223.282H223.282H223.282H223.282H223.282H223.283H223.283H223.283H223.283H223.283H223.283H223.283H223.283H223.283H223.283H223.284H223.284H223.284H223.284H223.284C227.825 49.5084 231.596 45.9678 231.879 41.4298L231.879 41.4291C232.122 37.4678 232.114 34.1284 231.843 31.5053L231.843 31.5046C231.647 29.6281 231.316 28.1104 230.83 26.9603C230.344 25.8112 229.681 24.9802 228.792 24.5637C228.38 24.3663 227.651 24.0658 223.623 23.8312C219.573 23.5954 212.13 23.4253 198.224 23.5331L150.865 49.5429ZM151.303 32.2441C151.611 29.1516 154.11 26.7356 157.172 26.4979L157.509 26.4892C166.26 26.2652 183.182 25.8688 198.249 25.7482C210.222 25.6534 217.455 25.7677 221.798 25.9557C223.97 26.0497 225.411 26.1619 226.359 26.2744C227.329 26.3896 227.725 26.5001 227.855 26.5618L227.858 26.5633C228.095 26.6734 228.76 27.1718 229.258 29.308C229.754 31.4313 230.061 35.0747 229.674 41.2892C229.458 44.6725 226.658 47.3019 223.284 47.3019H223.284H223.284H223.284H223.284H223.283H223.283H223.283H223.283H223.283H223.283H223.283H223.283H223.283H223.283H223.282H223.282H223.282H223.282H223.282H223.282H223.282H223.282H223.282H223.282H223.282H223.281H223.281H223.281H223.281H223.281H223.281H223.281H223.281H223.281H223.281H223.281H223.281H223.281H223.28H223.28H223.28H223.28H223.28H223.28H223.28H223.28H223.28H223.28H223.28H223.28H223.28H223.28H223.28H223.28H223.279H223.279H223.279H223.279H223.279H223.279H223.279H223.279H223.279H223.279H223.279H223.279H223.279H223.279H223.279H223.279H223.278H223.278H223.278H223.278H223.278H223.278H223.278H223.278H223.278H223.278H223.278H223.278H223.278H223.278H223.278H223.277H223.277H223.277H223.277H223.277H223.277H223.277H223.277H223.277H223.277H223.277H223.277H223.277H223.277H223.277H223.276H223.276H223.276H223.276H223.276H223.276H223.276H223.276H223.276H223.276H223.276H223.276H223.276H223.276H223.275H223.275H223.275H223.275H223.275H223.275H223.275H223.275H223.275H223.275H223.275H223.275H223.275H223.275H223.274H223.274H223.274H223.274H223.274H223.274H223.274H223.274H223.274H223.274H223.274H223.274H223.274H223.274H223.273H223.273H223.273H223.273H223.273H223.273H223.273H223.273H223.273H223.273H223.273H223.273H223.273H223.273H223.272H223.272H223.272H223.272H223.272H223.272H223.272H223.272H223.272H223.272H223.272H223.272H223.272H223.271H223.271H223.271H223.271H223.271H223.271H223.271H223.271H223.271H223.271H223.271H223.271H223.271H223.271H223.27H223.27H223.27H223.27H223.27H223.27H223.27H223.27H223.27H223.27H223.27H223.27H223.27H223.269H223.269H223.269H223.269H223.269H223.269H223.269H223.269H223.269H223.269H223.269H223.269H223.269H223.268H223.268H223.268H223.268H223.268H223.268H223.268H223.268H223.268H223.268H223.268H223.268H223.268H223.267H223.267H223.267H223.267H223.267H223.267H223.267H223.267H223.267H223.267H223.267H223.267H223.267H223.267H223.266H223.266H223.266H223.266H223.266H223.266H223.266H223.266H223.266H223.266H223.266H223.266H223.266H223.265H223.265H223.265H223.265H223.265H223.265H223.265H223.265H223.265H223.265H223.265H223.265H223.265H223.264H223.264H223.264H223.264H223.264H223.264H223.264H223.264H223.264H223.264H223.264H223.264H223.264H223.263H223.263H223.263H223.263H223.263H223.263H223.263H223.263H223.263H223.263H223.263H223.263H223.263H223.263H223.262H223.262H223.262H223.262H223.262H223.262H223.262H223.262H223.262H223.262H223.262H223.262H223.262H223.261H223.261H223.261H223.261H223.261H223.261H223.261H223.261H223.261H223.261H223.261H223.261H223.261H223.261H223.26H223.26H223.26H223.26H223.26H223.26H223.26H223.26H223.26H223.26H223.26H223.26H223.26H223.26H223.259H223.259H223.259H223.259H223.259H223.259H223.259H223.259H223.259H223.259H223.259H223.259H223.259H223.258H223.258H223.258H223.258H223.258H223.258H223.258H223.258H223.258H223.258H223.258H223.258H223.258H223.258H223.258H223.257H223.257H223.257H223.257H223.257H223.257H223.257H223.257H223.257H223.257H223.257H223.257H223.257H223.257H223.256H223.256H223.256H223.256H223.256H223.256H223.256H223.256H223.256H223.256H223.256H223.256H223.256H223.256H223.256H223.255H223.255H223.255H223.255H223.255H223.255H223.255H223.255H223.255H223.255H223.255H223.255H223.255H223.255H223.255H223.254H223.254H223.254H223.254H223.254H223.254H223.254H223.254H223.254H223.254H223.254H223.254H223.254H223.254H223.254H223.254H223.253H223.253H223.253H223.253H223.253H223.253H223.253H223.253H223.253H223.253H223.253H223.253H223.253H223.253H223.253H223.253H223.252H223.252H223.252H223.252H223.252H223.252H223.252H223.252H223.252H223.252H223.252H223.252H223.251H223.251H223.251H223.251H223.251H223.251H223.251C212.813 47.2459 195.39 47.164 180.241 47.1414C172.667 47.1301 165.66 47.1336 160.379 47.1625C157.739 47.177 155.529 47.1978 153.895 47.2264C152.606 47.249 151.649 47.2764 151.127 47.3122C151.114 47.2813 151.099 47.2445 151.084 47.2009C150.979 46.9039 150.845 46.3392 150.757 45.3054C150.581 43.2394 150.592 39.3863 151.303 32.2441Z"
      fill="#263A99" stroke="#284092"/>
  </g>
  <defs>
    <clipPath id="clip0_152_10">
      <path d="M0.75 12C0.75 5.37258 6.12258 0 12.75 0H351.5C358.127 0 363.5 5.37258 363.5 12V150H0.75V12Z"
            fill="white"/>
    </clipPath>
  </defs>
</svg>
