<svg width="363" height="150" viewBox="0 0 363 150" fill="none" xmlns="http://www.w3.org/2000/svg">
  <g clip-path="url(#clip0_152_3)">
    <path d="M0 12C0 5.37258 5.37258 0 12 0H350.75C357.377 0 362.75 5.37258 362.75 12V150H0V12Z" fill="#F3FEEB"/>
    <mask id="path-2-outside-1_152_3" maskUnits="userSpaceOnUse" x="-188.123" y="-30.986" width="643.774"
          height="238.974" fill="black">
      <rect fill="white" x="-188.123" y="-30.986" width="643.774" height="238.974"/>
      <path
        d="M170.006 178.551C167.773 178.316 164.964 176.122 161.353 171.821C158.066 167.906 155.057 163.341 153.928 161.621C148.419 153.255 144.178 144.188 141.265 134.588C126.771 127.579 107.436 120.653 83.5065 113.898C56.3383 106.232 23.2369 98.7842 -14.8724 91.7532C-79.794 79.7879 -137.502 73.1197 -138.077 73.0513C-151.411 71.5209 -165.283 69.8636 -178.198 68.2525C-178.833 68.17 -179.284 67.5914 -179.201 66.9521C-179.118 66.3127 -178.542 65.8579 -177.907 65.9405C-165 67.5508 -151.136 69.2073 -137.81 70.7369C-137.234 70.7975 -79.4578 77.4807 -14.4602 89.4619C23.7257 96.5009 56.8954 103.964 84.1387 111.653C100.325 116.225 114.582 120.922 126.496 125.621C131.507 127.602 136.153 129.591 140.424 131.603C139.949 129.85 139.516 128.079 139.123 126.288C136.866 115.907 136.081 104.962 136.789 93.7531C137.461 83.1884 139.35 74.3841 140.817 68.8616C142.397 62.914 144.182 58.1982 145.17 56.3345C145.81 55.1136 146.838 53.7461 148.075 52.8301L148.329 37.0989C148.348 35.8202 148.377 34.2224 149.13 32.8181C150.21 30.808 152.349 29.87 154.503 29.1522C168.2 24.591 182.734 23.5771 196.79 22.5989C201.853 22.2424 207.088 21.8805 212.185 21.3558C215.674 20.9973 218.331 21.1055 219.933 22.8284C221.299 24.292 221.605 26.5419 222.076 29.9416C222.134 30.3537 222.196 30.7898 222.257 31.249C222.998 36.434 223.754 41.8393 224.483 47.0622C225.079 51.3417 225.681 55.6452 226.295 59.9735C230.04 57.7055 234.174 55.3457 238.558 52.9732C257.451 42.7594 277.221 34.3717 292.81 29.9631C309.911 25.1203 328.601 23.3733 348.349 24.7598C363.355 25.8104 378.864 28.7101 394.459 33.368C413.01 38.9075 431.977 47.0443 450.843 57.5365C451.4 57.8451 451.604 58.5538 451.296 59.1226C450.989 59.6837 450.284 59.8906 449.72 59.5812C431.008 49.1677 412.189 41.1012 393.797 35.6018C378.368 30.9926 363.018 28.1253 348.182 27.0847C328.695 25.718 310.279 27.4392 293.434 32.2075C277.549 36.7021 257.447 45.2969 238.278 55.7783C234.147 58.0368 230.207 60.3156 226.651 62.4864C228.99 78.9205 231.503 95.5525 234.546 111.717C234.562 111.789 234.569 111.868 234.568 111.946L234.567 112.11C234.55 113.592 234.542 114.989 234.099 116.254C233.566 117.775 232.486 118.825 230.814 119.46C227.938 120.547 224.887 120.796 221.938 121.032L221.758 121.044C214.741 121.616 207.03 122.139 199.57 122.641C192.118 123.144 184.416 123.659 177.414 124.233C177.218 124.252 177.077 124.268 176.989 124.29C176.981 124.367 176.97 124.475 176.965 124.522C176.611 128.17 178.739 132.268 180.606 135.892C181 136.645 181.366 137.363 181.711 138.07C182.049 138.762 182.618 139.618 183.22 140.525C185.241 143.573 188.021 147.739 185.373 151.153C184.368 152.445 182.804 152.866 181.338 152.712C180.633 152.637 179.949 152.432 179.361 152.121C177.583 151.176 176.457 149.503 175.593 147.983C171.804 141.329 169.992 133.353 170.051 123.598C170.104 115.147 171.498 106.704 172.854 98.5461C173.042 97.4258 173.235 96.2592 173.415 95.1381C173.448 94.6028 173.508 93.883 173.579 93.0627C173.739 91.2523 173.96 88.7846 173.951 86.5894C173.936 83.5736 173.493 82.4728 173.218 82.0689C172.687 81.5132 171.974 81.282 171.101 81.4007C169.843 81.5648 168.502 82.4387 167.978 83.4376C166.309 86.6117 166.113 90.753 165.917 94.7461C165.663 99.9512 165.424 104.869 161.967 107.425C158.477 110.001 155.635 109.366 153.869 108.383C151.804 107.228 149.987 104.89 148.746 101.799C147.672 99.1168 147.137 96.0932 147.311 93.7064C147.357 87.4642 148.182 82.2803 149.23 77.1979C148.982 76.8205 148.754 76.4138 148.567 75.9802C147.738 74.0578 147.771 71.9763 147.801 70.1445L148.031 56.191C147.725 56.596 147.447 57.0274 147.223 57.4568C146.555 58.7139 144.832 62.8505 143.069 69.4973C141.628 74.9209 139.772 83.5569 139.113 93.9278C138.42 104.92 139.189 115.652 141.398 125.817C141.927 128.231 142.528 130.622 143.219 132.975C148.956 135.797 153.946 138.634 158.131 141.465C159.441 142.353 162.504 144.425 165.668 147.741C169.648 151.917 172.356 156.544 173.719 161.498C174.599 164.698 175.012 168.435 174.823 171.484C174.588 175.254 173.508 177.632 171.678 178.36C171.168 178.564 170.617 178.639 170.034 178.577L170.006 178.551ZM144.139 136.016C146.955 144.621 150.874 152.772 155.855 160.333C164.901 174.07 168.847 176.078 170.251 176.226C170.527 176.255 170.702 176.211 170.799 176.175C171.455 175.916 172.288 174.481 172.482 171.323C172.654 168.515 172.273 165.062 171.453 162.094C170.191 157.51 167.673 153.216 163.965 149.326C160.976 146.192 158.051 144.213 156.806 143.363C153.18 140.904 148.954 138.46 144.139 136.016ZM172.039 79.0477C173.167 79.1665 174.176 79.6712 174.941 80.5092C174.962 80.5348 174.982 80.5604 175.003 80.586C176.652 82.7433 176.352 87.8029 175.864 93.2411C175.792 94.069 175.724 94.7881 175.702 95.2933C175.698 95.3319 175.693 95.3782 175.689 95.4169C175.506 96.5611 175.303 97.7501 175.121 98.8943C172.5 114.712 169.532 132.64 177.588 146.795C178.289 148.017 179.171 149.36 180.427 150.031C181.396 150.547 182.86 150.561 183.533 149.694C185.032 147.768 183.475 145.097 181.287 141.797C180.645 140.824 180.035 139.908 179.626 139.084C179.287 138.401 178.926 137.699 178.539 136.955C176.523 133.049 174.229 128.622 174.647 124.285C174.682 123.953 174.74 123.335 175.152 122.808C175.771 122.014 176.748 121.938 177.218 121.901C184.235 121.329 191.946 120.806 199.406 120.304C206.858 119.801 214.56 119.286 221.562 118.712L221.742 118.699C224.535 118.471 227.421 118.236 229.99 117.265C232.107 116.465 232.213 115.016 232.244 112.076L232.249 112.022C229.266 96.1756 226.794 79.8915 224.496 63.7976C222.062 65.3292 219.845 66.7901 217.909 68.1556C217.239 68.6238 216.626 69.0745 216.063 69.4837C215.984 70.7482 215.747 71.9648 215.408 73.0458C214.631 75.4861 213.334 77.122 211.841 77.5268C210.443 77.9105 208.44 77.3402 207.852 76.0053C207.594 75.4316 207.64 74.7804 207.972 74.058C208.613 72.681 210.562 70.7545 213.776 68.2901C213.751 66.179 213.212 64.006 211.914 62.409C210.149 60.2473 207.597 59.7363 206.855 59.6347C205.479 59.4428 204.085 59.4285 202.696 59.5789C201.705 62.6526 200.137 65.6108 198.099 68.2384C195.675 71.3719 192.577 74.0517 189.139 75.9851C188.058 76.5974 186.757 77.1709 185.36 76.805C183.571 76.3431 182.952 75.294 182.749 74.4995C182.127 72.0836 184.412 68.5059 189.939 63.2397L190.06 63.1198C192.321 60.9529 195.049 59.2805 197.956 58.2672C198.922 57.9317 199.903 57.6682 200.9 57.4843C200.925 57.3932 200.95 57.3022 200.967 57.218C201.492 55.1026 201.455 52.7326 200.875 50.8755C200.429 49.4463 199.434 47.6235 197.264 47.02C195.462 46.5255 193.429 47.1234 192.059 47.6115C189.779 48.4253 187.511 50.3649 185.122 53.5333C182.912 56.4707 180.799 60.1836 178.761 63.7716C175.599 69.334 172.333 75.0806 168.359 78.6442C166.123 80.6496 163.868 81.8097 161.454 82.1955C158.78 82.6165 155.934 82.0276 152.982 80.4514C152.417 80.1498 151.783 79.7551 151.154 79.2514C150.288 83.7127 149.646 88.3303 149.606 93.7141C149.604 93.7372 149.601 93.7681 149.598 93.7913C149.278 98.0055 151.553 104.383 154.973 106.297C156.709 107.269 158.544 107.01 160.58 105.498C163.146 103.598 163.366 99.225 163.592 94.5869C163.799 90.3374 164.014 85.9403 165.917 82.3068C166.783 80.6488 168.793 79.3068 170.79 79.0488C171.223 78.9929 171.642 78.9902 172.041 79.0322L172.039 79.0477ZM151.69 76.5982C152.424 77.4253 153.324 78.0199 154.058 78.4096C158.801 80.9476 162.845 80.4759 166.803 76.9262C170.495 73.614 173.666 68.0292 176.732 62.6364C178.808 58.982 180.959 55.2029 183.259 52.15C185.965 48.5542 188.508 46.425 191.265 45.435C192.933 44.8378 195.428 44.1247 197.863 44.7951C202.868 46.1738 204.377 52.088 203.335 57.1943C204.623 57.1115 205.913 57.1616 207.174 57.3413C208.39 57.5085 211.465 58.2074 213.698 60.9415C215.024 62.565 215.732 64.5996 215.987 66.6724C216.599 66.2371 217.236 65.7888 217.912 65.3292C219.801 64.0368 221.883 62.6789 224.132 61.2839C223.475 56.6309 222.824 51.9864 222.177 47.3813C221.411 41.9203 220.691 36.7609 219.95 31.5759C219.882 31.1158 219.827 30.6806 219.763 30.2599C219.354 27.2964 219.087 25.3395 218.223 24.4129C217.422 23.5476 215.677 23.3246 212.399 23.6663C207.271 24.1956 202.012 24.5627 196.926 24.9168C183.01 25.8864 168.625 26.8924 155.201 31.3576C153.618 31.8856 151.871 32.5605 151.139 33.9201C150.656 34.8218 150.635 36.0457 150.614 37.1289L150.378 51.8078C150.441 51.7988 150.504 51.7899 150.566 51.7886C151.536 51.7112 152.958 51.9783 154.244 53.6911C154.25 53.6996 154.264 53.7167 154.271 53.7252C154.938 54.6857 155.299 55.8951 155.351 57.3139C155.352 57.3765 155.354 57.4314 155.34 57.4924C154.667 63.1375 153.594 67.9516 152.553 72.6052C152.257 73.9406 151.962 75.2682 151.675 76.5889L151.69 76.5982ZM150.351 54.1945L150.09 70.1436C150.073 71.0398 150.063 71.9446 150.149 72.8204C150.205 72.5842 150.254 72.3395 150.31 72.1033C151.326 67.5331 152.383 62.8031 153.047 57.3132C153.005 56.3874 152.796 55.6547 152.398 55.0818C151.616 54.0466 150.974 54.0962 150.763 54.1129C150.63 54.1224 150.495 54.155 150.359 54.1953L150.351 54.1945ZM200.061 60.0742C196.99 60.8828 194.065 62.5111 191.642 64.817L191.521 64.937C190.719 65.6958 188.856 67.4828 187.296 69.4034C184.845 72.4246 184.904 73.6257 184.981 73.9227C185.009 74.0272 185.093 74.3405 185.93 74.5615C186.542 74.7197 187.318 74.3486 188.002 73.96C191.177 72.1707 194.036 69.6999 196.264 66.8112C197.862 64.7464 199.151 62.4537 200.062 60.0665L200.061 60.0742ZM210.033 75.103C210.281 75.2541 210.825 75.3972 211.224 75.2909C211.783 75.139 212.614 74.1647 213.193 72.3516C213.275 72.0947 213.349 71.8292 213.417 71.5552C210.798 73.7312 210.186 74.7599 210.041 75.1038L210.033 75.103Z"/>
    </mask>
    <path
      d="M170.006 178.551C167.773 178.316 164.964 176.122 161.353 171.821C158.066 167.906 155.057 163.341 153.928 161.621C148.419 153.255 144.178 144.188 141.265 134.588C126.771 127.579 107.436 120.653 83.5065 113.898C56.3383 106.232 23.2369 98.7842 -14.8724 91.7532C-79.794 79.7879 -137.502 73.1197 -138.077 73.0513C-151.411 71.5209 -165.283 69.8636 -178.198 68.2525C-178.833 68.17 -179.284 67.5914 -179.201 66.9521C-179.118 66.3127 -178.542 65.8579 -177.907 65.9405C-165 67.5508 -151.136 69.2073 -137.81 70.7369C-137.234 70.7975 -79.4578 77.4807 -14.4602 89.4619C23.7257 96.5009 56.8954 103.964 84.1387 111.653C100.325 116.225 114.582 120.922 126.496 125.621C131.507 127.602 136.153 129.591 140.424 131.603C139.949 129.85 139.516 128.079 139.123 126.288C136.866 115.907 136.081 104.962 136.789 93.7531C137.461 83.1884 139.35 74.3841 140.817 68.8616C142.397 62.914 144.182 58.1982 145.17 56.3345C145.81 55.1136 146.838 53.7461 148.075 52.8301L148.329 37.0989C148.348 35.8202 148.377 34.2224 149.13 32.8181C150.21 30.808 152.349 29.87 154.503 29.1522C168.2 24.591 182.734 23.5771 196.79 22.5989C201.853 22.2424 207.088 21.8805 212.185 21.3558C215.674 20.9973 218.331 21.1055 219.933 22.8284C221.299 24.292 221.605 26.5419 222.076 29.9416C222.134 30.3537 222.196 30.7898 222.257 31.249C222.998 36.434 223.754 41.8393 224.483 47.0622C225.079 51.3417 225.681 55.6452 226.295 59.9735C230.04 57.7055 234.174 55.3457 238.558 52.9732C257.451 42.7594 277.221 34.3717 292.81 29.9631C309.911 25.1203 328.601 23.3733 348.349 24.7598C363.355 25.8104 378.864 28.7101 394.459 33.368C413.01 38.9075 431.977 47.0443 450.843 57.5365C451.4 57.8451 451.604 58.5538 451.296 59.1226C450.989 59.6837 450.284 59.8906 449.72 59.5812C431.008 49.1677 412.189 41.1012 393.797 35.6018C378.368 30.9926 363.018 28.1253 348.182 27.0847C328.695 25.718 310.279 27.4392 293.434 32.2075C277.549 36.7021 257.447 45.2969 238.278 55.7783C234.147 58.0368 230.207 60.3156 226.651 62.4864C228.99 78.9205 231.503 95.5525 234.546 111.717C234.562 111.789 234.569 111.868 234.568 111.946L234.567 112.11C234.55 113.592 234.542 114.989 234.099 116.254C233.566 117.775 232.486 118.825 230.814 119.46C227.938 120.547 224.887 120.796 221.938 121.032L221.758 121.044C214.741 121.616 207.03 122.139 199.57 122.641C192.118 123.144 184.416 123.659 177.414 124.233C177.218 124.252 177.077 124.268 176.989 124.29C176.981 124.367 176.97 124.475 176.965 124.522C176.611 128.17 178.739 132.268 180.606 135.892C181 136.645 181.366 137.363 181.711 138.07C182.049 138.762 182.618 139.618 183.22 140.525C185.241 143.573 188.021 147.739 185.373 151.153C184.368 152.445 182.804 152.866 181.338 152.712C180.633 152.637 179.949 152.432 179.361 152.121C177.583 151.176 176.457 149.503 175.593 147.983C171.804 141.329 169.992 133.353 170.051 123.598C170.104 115.147 171.498 106.704 172.854 98.5461C173.042 97.4258 173.235 96.2592 173.415 95.1381C173.448 94.6028 173.508 93.883 173.579 93.0627C173.739 91.2523 173.96 88.7846 173.951 86.5894C173.936 83.5736 173.493 82.4728 173.218 82.0689C172.687 81.5132 171.974 81.282 171.101 81.4007C169.843 81.5648 168.502 82.4387 167.978 83.4376C166.309 86.6117 166.113 90.753 165.917 94.7461C165.663 99.9512 165.424 104.869 161.967 107.425C158.477 110.001 155.635 109.366 153.869 108.383C151.804 107.228 149.987 104.89 148.746 101.799C147.672 99.1168 147.137 96.0932 147.311 93.7064C147.357 87.4642 148.182 82.2803 149.23 77.1979C148.982 76.8205 148.754 76.4138 148.567 75.9802C147.738 74.0578 147.771 71.9763 147.801 70.1445L148.031 56.191C147.725 56.596 147.447 57.0274 147.223 57.4568C146.555 58.7139 144.832 62.8505 143.069 69.4973C141.628 74.9209 139.772 83.5569 139.113 93.9278C138.42 104.92 139.189 115.652 141.398 125.817C141.927 128.231 142.528 130.622 143.219 132.975C148.956 135.797 153.946 138.634 158.131 141.465C159.441 142.353 162.504 144.425 165.668 147.741C169.648 151.917 172.356 156.544 173.719 161.498C174.599 164.698 175.012 168.435 174.823 171.484C174.588 175.254 173.508 177.632 171.678 178.36C171.168 178.564 170.617 178.639 170.034 178.577L170.006 178.551ZM144.139 136.016C146.955 144.621 150.874 152.772 155.855 160.333C164.901 174.07 168.847 176.078 170.251 176.226C170.527 176.255 170.702 176.211 170.799 176.175C171.455 175.916 172.288 174.481 172.482 171.323C172.654 168.515 172.273 165.062 171.453 162.094C170.191 157.51 167.673 153.216 163.965 149.326C160.976 146.192 158.051 144.213 156.806 143.363C153.18 140.904 148.954 138.46 144.139 136.016ZM172.039 79.0477C173.167 79.1665 174.176 79.6712 174.941 80.5092C174.962 80.5348 174.982 80.5604 175.003 80.586C176.652 82.7433 176.352 87.8029 175.864 93.2411C175.792 94.069 175.724 94.7881 175.702 95.2933C175.698 95.3319 175.693 95.3782 175.689 95.4169C175.506 96.5611 175.303 97.7501 175.121 98.8943C172.5 114.712 169.532 132.64 177.588 146.795C178.289 148.017 179.171 149.36 180.427 150.031C181.396 150.547 182.86 150.561 183.533 149.694C185.032 147.768 183.475 145.097 181.287 141.797C180.645 140.824 180.035 139.908 179.626 139.084C179.287 138.401 178.926 137.699 178.539 136.955C176.523 133.049 174.229 128.622 174.647 124.285C174.682 123.953 174.74 123.335 175.152 122.808C175.771 122.014 176.748 121.938 177.218 121.901C184.235 121.329 191.946 120.806 199.406 120.304C206.858 119.801 214.56 119.286 221.562 118.712L221.742 118.699C224.535 118.471 227.421 118.236 229.99 117.265C232.107 116.465 232.213 115.016 232.244 112.076L232.249 112.022C229.266 96.1756 226.794 79.8915 224.496 63.7976C222.062 65.3292 219.845 66.7901 217.909 68.1556C217.239 68.6238 216.626 69.0745 216.063 69.4837C215.984 70.7482 215.747 71.9648 215.408 73.0458C214.631 75.4861 213.334 77.122 211.841 77.5268C210.443 77.9105 208.44 77.3402 207.852 76.0053C207.594 75.4316 207.64 74.7804 207.972 74.058C208.613 72.681 210.562 70.7545 213.776 68.2901C213.751 66.179 213.212 64.006 211.914 62.409C210.149 60.2473 207.597 59.7363 206.855 59.6347C205.479 59.4428 204.085 59.4285 202.696 59.5789C201.705 62.6526 200.137 65.6108 198.099 68.2384C195.675 71.3719 192.577 74.0517 189.139 75.9851C188.058 76.5974 186.757 77.1709 185.36 76.805C183.571 76.3431 182.952 75.294 182.749 74.4995C182.127 72.0836 184.412 68.5059 189.939 63.2397L190.06 63.1198C192.321 60.9529 195.049 59.2805 197.956 58.2672C198.922 57.9317 199.903 57.6682 200.9 57.4843C200.925 57.3932 200.95 57.3022 200.967 57.218C201.492 55.1026 201.455 52.7326 200.875 50.8755C200.429 49.4463 199.434 47.6235 197.264 47.02C195.462 46.5255 193.429 47.1234 192.059 47.6115C189.779 48.4253 187.511 50.3649 185.122 53.5333C182.912 56.4707 180.799 60.1836 178.761 63.7716C175.599 69.334 172.333 75.0806 168.359 78.6442C166.123 80.6496 163.868 81.8097 161.454 82.1955C158.78 82.6165 155.934 82.0276 152.982 80.4514C152.417 80.1498 151.783 79.7551 151.154 79.2514C150.288 83.7127 149.646 88.3303 149.606 93.7141C149.604 93.7372 149.601 93.7681 149.598 93.7913C149.278 98.0055 151.553 104.383 154.973 106.297C156.709 107.269 158.544 107.01 160.58 105.498C163.146 103.598 163.366 99.225 163.592 94.5869C163.799 90.3374 164.014 85.9403 165.917 82.3068C166.783 80.6488 168.793 79.3068 170.79 79.0488C171.223 78.9929 171.642 78.9902 172.041 79.0322L172.039 79.0477ZM151.69 76.5982C152.424 77.4253 153.324 78.0199 154.058 78.4096C158.801 80.9476 162.845 80.4759 166.803 76.9262C170.495 73.614 173.666 68.0292 176.732 62.6364C178.808 58.982 180.959 55.2029 183.259 52.15C185.965 48.5542 188.508 46.425 191.265 45.435C192.933 44.8378 195.428 44.1247 197.863 44.7951C202.868 46.1738 204.377 52.088 203.335 57.1943C204.623 57.1115 205.913 57.1616 207.174 57.3413C208.39 57.5085 211.465 58.2074 213.698 60.9415C215.024 62.565 215.732 64.5996 215.987 66.6724C216.599 66.2371 217.236 65.7888 217.912 65.3292C219.801 64.0368 221.883 62.6789 224.132 61.2839C223.475 56.6309 222.824 51.9864 222.177 47.3813C221.411 41.9203 220.691 36.7609 219.95 31.5759C219.882 31.1158 219.827 30.6806 219.763 30.2599C219.354 27.2964 219.087 25.3395 218.223 24.4129C217.422 23.5476 215.677 23.3246 212.399 23.6663C207.271 24.1956 202.012 24.5627 196.926 24.9168C183.01 25.8864 168.625 26.8924 155.201 31.3576C153.618 31.8856 151.871 32.5605 151.139 33.9201C150.656 34.8218 150.635 36.0457 150.614 37.1289L150.378 51.8078C150.441 51.7988 150.504 51.7899 150.566 51.7886C151.536 51.7112 152.958 51.9783 154.244 53.6911C154.25 53.6996 154.264 53.7167 154.271 53.7252C154.938 54.6857 155.299 55.8951 155.351 57.3139C155.352 57.3765 155.354 57.4314 155.34 57.4924C154.667 63.1375 153.594 67.9516 152.553 72.6052C152.257 73.9406 151.962 75.2682 151.675 76.5889L151.69 76.5982ZM150.351 54.1945L150.09 70.1436C150.073 71.0398 150.063 71.9446 150.149 72.8204C150.205 72.5842 150.254 72.3395 150.31 72.1033C151.326 67.5331 152.383 62.8031 153.047 57.3132C153.005 56.3874 152.796 55.6547 152.398 55.0818C151.616 54.0466 150.974 54.0962 150.763 54.1129C150.63 54.1224 150.495 54.155 150.359 54.1953L150.351 54.1945ZM200.061 60.0742C196.99 60.8828 194.065 62.5111 191.642 64.817L191.521 64.937C190.719 65.6958 188.856 67.4828 187.296 69.4034C184.845 72.4246 184.904 73.6257 184.981 73.9227C185.009 74.0272 185.093 74.3405 185.93 74.5615C186.542 74.7197 187.318 74.3486 188.002 73.96C191.177 72.1707 194.036 69.6999 196.264 66.8112C197.862 64.7464 199.151 62.4537 200.062 60.0665L200.061 60.0742ZM210.033 75.103C210.281 75.2541 210.825 75.3972 211.224 75.2909C211.783 75.139 212.614 74.1647 213.193 72.3516C213.275 72.0947 213.349 71.8292 213.417 71.5552C210.798 73.7312 210.186 74.7599 210.041 75.1038L210.033 75.103Z"
      fill="#307704"/>
    <path
      d="M170.006 178.551C167.773 178.316 164.964 176.122 161.353 171.821C158.066 167.906 155.057 163.341 153.928 161.621C148.419 153.255 144.178 144.188 141.265 134.588C126.771 127.579 107.436 120.653 83.5065 113.898C56.3383 106.232 23.2369 98.7842 -14.8724 91.7532C-79.794 79.7879 -137.502 73.1197 -138.077 73.0513C-151.411 71.5209 -165.283 69.8636 -178.198 68.2525C-178.833 68.17 -179.284 67.5914 -179.201 66.9521C-179.118 66.3127 -178.542 65.8579 -177.907 65.9405C-165 67.5508 -151.136 69.2073 -137.81 70.7369C-137.234 70.7975 -79.4578 77.4807 -14.4602 89.4619C23.7257 96.5009 56.8954 103.964 84.1387 111.653C100.325 116.225 114.582 120.922 126.496 125.621C131.507 127.602 136.153 129.591 140.424 131.603C139.949 129.85 139.516 128.079 139.123 126.288C136.866 115.907 136.081 104.962 136.789 93.7531C137.461 83.1884 139.35 74.3841 140.817 68.8616C142.397 62.914 144.182 58.1982 145.17 56.3345C145.81 55.1136 146.838 53.7461 148.075 52.8301L148.329 37.0989C148.348 35.8202 148.377 34.2224 149.13 32.8181C150.21 30.808 152.349 29.87 154.503 29.1522C168.2 24.591 182.734 23.5771 196.79 22.5989C201.853 22.2424 207.088 21.8805 212.185 21.3558C215.674 20.9973 218.331 21.1055 219.933 22.8284C221.299 24.292 221.605 26.5419 222.076 29.9416C222.134 30.3537 222.196 30.7898 222.257 31.249C222.998 36.434 223.754 41.8393 224.483 47.0622C225.079 51.3417 225.681 55.6452 226.295 59.9735C230.04 57.7055 234.174 55.3457 238.558 52.9732C257.451 42.7594 277.221 34.3717 292.81 29.9631C309.911 25.1203 328.601 23.3733 348.349 24.7598C363.355 25.8104 378.864 28.7101 394.459 33.368C413.01 38.9075 431.977 47.0443 450.843 57.5365C451.4 57.8451 451.604 58.5538 451.296 59.1226C450.989 59.6837 450.284 59.8906 449.72 59.5812C431.008 49.1677 412.189 41.1012 393.797 35.6018C378.368 30.9926 363.018 28.1253 348.182 27.0847C328.695 25.718 310.279 27.4392 293.434 32.2075C277.549 36.7021 257.447 45.2969 238.278 55.7783C234.147 58.0368 230.207 60.3156 226.651 62.4864C228.99 78.9205 231.503 95.5525 234.546 111.717C234.562 111.789 234.569 111.868 234.568 111.946L234.567 112.11C234.55 113.592 234.542 114.989 234.099 116.254C233.566 117.775 232.486 118.825 230.814 119.46C227.938 120.547 224.887 120.796 221.938 121.032L221.758 121.044C214.741 121.616 207.03 122.139 199.57 122.641C192.118 123.144 184.416 123.659 177.414 124.233C177.218 124.252 177.077 124.268 176.989 124.29C176.981 124.367 176.97 124.475 176.965 124.522C176.611 128.17 178.739 132.268 180.606 135.892C181 136.645 181.366 137.363 181.711 138.07C182.049 138.762 182.618 139.618 183.22 140.525C185.241 143.573 188.021 147.739 185.373 151.153C184.368 152.445 182.804 152.866 181.338 152.712C180.633 152.637 179.949 152.432 179.361 152.121C177.583 151.176 176.457 149.503 175.593 147.983C171.804 141.329 169.992 133.353 170.051 123.598C170.104 115.147 171.498 106.704 172.854 98.5461C173.042 97.4258 173.235 96.2592 173.415 95.1381C173.448 94.6028 173.508 93.883 173.579 93.0627C173.739 91.2523 173.96 88.7846 173.951 86.5894C173.936 83.5736 173.493 82.4728 173.218 82.0689C172.687 81.5132 171.974 81.282 171.101 81.4007C169.843 81.5648 168.502 82.4387 167.978 83.4376C166.309 86.6117 166.113 90.753 165.917 94.7461C165.663 99.9512 165.424 104.869 161.967 107.425C158.477 110.001 155.635 109.366 153.869 108.383C151.804 107.228 149.987 104.89 148.746 101.799C147.672 99.1168 147.137 96.0932 147.311 93.7064C147.357 87.4642 148.182 82.2803 149.23 77.1979C148.982 76.8205 148.754 76.4138 148.567 75.9802C147.738 74.0578 147.771 71.9763 147.801 70.1445L148.031 56.191C147.725 56.596 147.447 57.0274 147.223 57.4568C146.555 58.7139 144.832 62.8505 143.069 69.4973C141.628 74.9209 139.772 83.5569 139.113 93.9278C138.42 104.92 139.189 115.652 141.398 125.817C141.927 128.231 142.528 130.622 143.219 132.975C148.956 135.797 153.946 138.634 158.131 141.465C159.441 142.353 162.504 144.425 165.668 147.741C169.648 151.917 172.356 156.544 173.719 161.498C174.599 164.698 175.012 168.435 174.823 171.484C174.588 175.254 173.508 177.632 171.678 178.36C171.168 178.564 170.617 178.639 170.034 178.577L170.006 178.551ZM144.139 136.016C146.955 144.621 150.874 152.772 155.855 160.333C164.901 174.07 168.847 176.078 170.251 176.226C170.527 176.255 170.702 176.211 170.799 176.175C171.455 175.916 172.288 174.481 172.482 171.323C172.654 168.515 172.273 165.062 171.453 162.094C170.191 157.51 167.673 153.216 163.965 149.326C160.976 146.192 158.051 144.213 156.806 143.363C153.18 140.904 148.954 138.46 144.139 136.016ZM172.039 79.0477C173.167 79.1665 174.176 79.6712 174.941 80.5092C174.962 80.5348 174.982 80.5604 175.003 80.586C176.652 82.7433 176.352 87.8029 175.864 93.2411C175.792 94.069 175.724 94.7881 175.702 95.2933C175.698 95.3319 175.693 95.3782 175.689 95.4169C175.506 96.5611 175.303 97.7501 175.121 98.8943C172.5 114.712 169.532 132.64 177.588 146.795C178.289 148.017 179.171 149.36 180.427 150.031C181.396 150.547 182.86 150.561 183.533 149.694C185.032 147.768 183.475 145.097 181.287 141.797C180.645 140.824 180.035 139.908 179.626 139.084C179.287 138.401 178.926 137.699 178.539 136.955C176.523 133.049 174.229 128.622 174.647 124.285C174.682 123.953 174.74 123.335 175.152 122.808C175.771 122.014 176.748 121.938 177.218 121.901C184.235 121.329 191.946 120.806 199.406 120.304C206.858 119.801 214.56 119.286 221.562 118.712L221.742 118.699C224.535 118.471 227.421 118.236 229.99 117.265C232.107 116.465 232.213 115.016 232.244 112.076L232.249 112.022C229.266 96.1756 226.794 79.8915 224.496 63.7976C222.062 65.3292 219.845 66.7901 217.909 68.1556C217.239 68.6238 216.626 69.0745 216.063 69.4837C215.984 70.7482 215.747 71.9648 215.408 73.0458C214.631 75.4861 213.334 77.122 211.841 77.5268C210.443 77.9105 208.44 77.3402 207.852 76.0053C207.594 75.4316 207.64 74.7804 207.972 74.058C208.613 72.681 210.562 70.7545 213.776 68.2901C213.751 66.179 213.212 64.006 211.914 62.409C210.149 60.2473 207.597 59.7363 206.855 59.6347C205.479 59.4428 204.085 59.4285 202.696 59.5789C201.705 62.6526 200.137 65.6108 198.099 68.2384C195.675 71.3719 192.577 74.0517 189.139 75.9851C188.058 76.5974 186.757 77.1709 185.36 76.805C183.571 76.3431 182.952 75.294 182.749 74.4995C182.127 72.0836 184.412 68.5059 189.939 63.2397L190.06 63.1198C192.321 60.9529 195.049 59.2805 197.956 58.2672C198.922 57.9317 199.903 57.6682 200.9 57.4843C200.925 57.3932 200.95 57.3022 200.967 57.218C201.492 55.1026 201.455 52.7326 200.875 50.8755C200.429 49.4463 199.434 47.6235 197.264 47.02C195.462 46.5255 193.429 47.1234 192.059 47.6115C189.779 48.4253 187.511 50.3649 185.122 53.5333C182.912 56.4707 180.799 60.1836 178.761 63.7716C175.599 69.334 172.333 75.0806 168.359 78.6442C166.123 80.6496 163.868 81.8097 161.454 82.1955C158.78 82.6165 155.934 82.0276 152.982 80.4514C152.417 80.1498 151.783 79.7551 151.154 79.2514C150.288 83.7127 149.646 88.3303 149.606 93.7141C149.604 93.7372 149.601 93.7681 149.598 93.7913C149.278 98.0055 151.553 104.383 154.973 106.297C156.709 107.269 158.544 107.01 160.58 105.498C163.146 103.598 163.366 99.225 163.592 94.5869C163.799 90.3374 164.014 85.9403 165.917 82.3068C166.783 80.6488 168.793 79.3068 170.79 79.0488C171.223 78.9929 171.642 78.9902 172.041 79.0322L172.039 79.0477ZM151.69 76.5982C152.424 77.4253 153.324 78.0199 154.058 78.4096C158.801 80.9476 162.845 80.4759 166.803 76.9262C170.495 73.614 173.666 68.0292 176.732 62.6364C178.808 58.982 180.959 55.2029 183.259 52.15C185.965 48.5542 188.508 46.425 191.265 45.435C192.933 44.8378 195.428 44.1247 197.863 44.7951C202.868 46.1738 204.377 52.088 203.335 57.1943C204.623 57.1115 205.913 57.1616 207.174 57.3413C208.39 57.5085 211.465 58.2074 213.698 60.9415C215.024 62.565 215.732 64.5996 215.987 66.6724C216.599 66.2371 217.236 65.7888 217.912 65.3292C219.801 64.0368 221.883 62.6789 224.132 61.2839C223.475 56.6309 222.824 51.9864 222.177 47.3813C221.411 41.9203 220.691 36.7609 219.95 31.5759C219.882 31.1158 219.827 30.6806 219.763 30.2599C219.354 27.2964 219.087 25.3395 218.223 24.4129C217.422 23.5476 215.677 23.3246 212.399 23.6663C207.271 24.1956 202.012 24.5627 196.926 24.9168C183.01 25.8864 168.625 26.8924 155.201 31.3576C153.618 31.8856 151.871 32.5605 151.139 33.9201C150.656 34.8218 150.635 36.0457 150.614 37.1289L150.378 51.8078C150.441 51.7988 150.504 51.7899 150.566 51.7886C151.536 51.7112 152.958 51.9783 154.244 53.6911C154.25 53.6996 154.264 53.7167 154.271 53.7252C154.938 54.6857 155.299 55.8951 155.351 57.3139C155.352 57.3765 155.354 57.4314 155.34 57.4924C154.667 63.1375 153.594 67.9516 152.553 72.6052C152.257 73.9406 151.962 75.2682 151.675 76.5889L151.69 76.5982ZM150.351 54.1945L150.09 70.1436C150.073 71.0398 150.063 71.9446 150.149 72.8204C150.205 72.5842 150.254 72.3395 150.31 72.1033C151.326 67.5331 152.383 62.8031 153.047 57.3132C153.005 56.3874 152.796 55.6547 152.398 55.0818C151.616 54.0466 150.974 54.0962 150.763 54.1129C150.63 54.1224 150.495 54.155 150.359 54.1953L150.351 54.1945ZM200.061 60.0742C196.99 60.8828 194.065 62.5111 191.642 64.817L191.521 64.937C190.719 65.6958 188.856 67.4828 187.296 69.4034C184.845 72.4246 184.904 73.6257 184.981 73.9227C185.009 74.0272 185.093 74.3405 185.93 74.5615C186.542 74.7197 187.318 74.3486 188.002 73.96C191.177 72.1707 194.036 69.6999 196.264 66.8112C197.862 64.7464 199.151 62.4537 200.062 60.0665L200.061 60.0742ZM210.033 75.103C210.281 75.2541 210.825 75.3972 211.224 75.2909C211.783 75.139 212.614 74.1647 213.193 72.3516C213.275 72.0947 213.349 71.8292 213.417 71.5552C210.798 73.7312 210.186 74.7599 210.041 75.1038L210.033 75.103Z"
      stroke="#307704" stroke-width="2" mask="url(#path-2-outside-1_152_3)"/>
  </g>
  <defs>
    <clipPath id="clip0_152_3">
      <path d="M0 12C0 5.37258 5.37258 0 12 0H350.75C357.377 0 362.75 5.37258 362.75 12V150H0V12Z" fill="white"/>
    </clipPath>
  </defs>
</svg>
