<svg width="364" height="150" viewBox="0 0 364 150" fill="none" xmlns="http://www.w3.org/2000/svg">
  <g clip-path="url(#clip0_152_20)">
    <path d="M0.5 12C0.5 5.37258 5.87258 0 12.5 0H351.25C357.877 0 363.25 5.37258 363.25 12V150H0.5V12Z" fill="#FEEFEC"/>
    <mask id="path-2-outside-1_152_20" maskUnits="userSpaceOnUse" x="-99" y="13" width="497" height="124" fill="black">
      <rect fill="white" x="-99" y="13" width="497" height="124"/>
      <path d="M173.498 135.037C167.861 135.037 163.125 134.486 159.628 132.971C158.198 132.356 157.499 131.381 157.276 129.728C157.075 128.245 157.255 126.168 157.52 123.011C157.732 120.521 157.996 117.416 158.177 113.411C158.336 109.84 158.664 104.818 158.918 101.226C158.971 100.421 158.706 99.6576 158.155 99.0643C157.604 98.4709 156.863 98.1424 156.057 98.1424L131.878 97.9517C128.36 97.9199 125.457 95.2604 125.128 91.7638C124.673 86.9533 124.736 82.0686 125.309 77.2476C125.817 73.0198 126.506 71.4305 126.877 70.5722C126.94 70.4239 126.993 70.3179 127.014 70.2331C127.873 67.7537 130.659 66.3021 135.767 65.6664C138.553 65.3167 142.06 65.2107 146.701 65.3379C145.886 63.6955 145.144 62.0002 144.497 60.2837C135.862 59.1817 125.33 58.4612 113.039 58.1328C85.4789 57.3805 58.3537 58.8851 58.0888 58.8957C18.0791 61.142 -11.5785 63.7591 -40.2507 66.2915C-59.2913 67.9762 -77.2724 69.555 -97.2031 70.9431C-97.6163 70.9748 -97.966 70.6676 -97.9977 70.2543C-98.0295 69.8411 -97.7222 69.4914 -97.309 69.4596C-77.3889 68.0822 -59.4185 66.4928 -40.3778 64.8187C-11.6845 62.2863 17.9838 59.6691 58.0146 57.4228C58.2901 57.4122 85.4683 55.9076 113.081 56.6599C125.065 56.9884 135.396 57.6771 143.936 58.7261C142.855 55.6004 142.071 52.411 141.637 49.3383C140.683 42.5675 141.414 36.3796 143.745 31.442C145.589 27.5427 148.503 24.2262 152.413 21.5879C155.962 19.1932 160.349 17.3284 165.456 16.0569C175.638 13.5139 188.629 13.3232 202.022 15.5165C213.847 17.4555 224.474 21.1005 229.762 25.0421C231.383 26.25 233.82 28.0619 235.187 31.3678C236.999 35.7651 235.547 39.4842 233.343 45.1211C231.87 48.9038 230.027 53.619 228.511 60.1354C228.172 61.5764 227.886 62.9644 227.653 64.2783C229.984 65.1472 231.415 66.3657 231.976 67.9445C232.729 70.0636 232.231 74.196 230.948 76.4529C230.398 77.4277 229.741 77.9893 228.999 78.1376C228.458 78.2436 227.908 78.1376 227.346 77.7879C225.619 76.7602 225.036 73.7403 225.545 68.559C225.651 67.457 225.799 66.3551 225.968 65.3061C221.275 63.971 213.275 63.7379 202.668 64.6916C201.026 64.8399 199.373 64.2889 198.144 63.187C196.915 62.085 196.194 60.4956 196.163 58.8427C196.099 54.9964 196.035 51.0972 195.982 47.2509C195.929 43.6059 195.887 39.908 195.855 36.2525C195.834 34.5042 194.584 33.0207 192.878 32.7029C187.538 31.7281 182.081 31.1983 176.656 31.1453C171.866 31.0923 167.024 31.4102 162.277 32.0777C160.582 32.3108 159.3 33.7307 159.236 35.426C159.067 39.3782 158.94 43.3834 158.855 47.3357C158.749 51.966 158.706 56.6599 158.717 61.3221C167.416 63.4942 172.301 66.3657 173.604 70.0318C175.554 75.5204 173.583 78.4979 173.498 78.625C170.743 82.6726 163.708 81.8249 163.411 81.7826C160.783 81.4435 157.901 79.8435 155.083 77.1416C152.423 74.5986 149.859 71.1444 147.676 67.1604C147.623 67.0544 147.56 66.9485 147.507 66.8425C137.769 66.5352 129.685 67.1392 128.445 70.7311C128.392 70.8689 128.339 71.0172 128.265 71.1762C127.926 71.9603 127.29 73.4225 126.813 77.4277C126.252 82.1428 126.188 86.9215 126.633 91.626C126.887 94.3597 129.165 96.4471 131.92 96.4683L156.1 96.659C157.318 96.659 158.441 97.1676 159.279 98.0577C160.105 98.9477 160.518 100.113 160.434 101.332C160.19 104.913 159.861 109.936 159.692 113.485C159.512 117.512 159.247 120.637 159.035 123.138C158.505 129.464 158.452 130.83 160.253 131.615C167.723 134.846 181.646 133.437 197.762 131.795C198.547 131.71 199.331 131.636 200.125 131.551C200.348 131.53 200.517 131.424 200.687 131.212C202.329 129.114 201.079 120.203 200.062 113.04C198.854 104.468 198.239 99.5623 199.68 98.1424C200.878 96.9663 205.73 95.3452 233.926 94.9955C250.477 94.7836 272.993 95.0379 300.849 95.7478C348.276 96.9557 395.395 99.0961 395.872 99.1173C396.285 99.1385 396.592 99.4775 396.582 99.8907C396.561 100.304 396.222 100.622 395.808 100.601C395.342 100.579 348.233 98.4391 300.817 97.2312C272.971 96.5213 250.477 96.267 233.947 96.4789C224.146 96.6061 216.369 96.8921 210.827 97.3372C202.753 97.9835 201.079 98.8524 200.729 99.202C200.592 99.3398 200.168 100.06 200.422 103.663C200.602 106.206 201.058 109.427 201.545 112.839C202.965 122.926 203.76 129.718 201.863 132.134C201.45 132.664 200.909 132.971 200.284 133.034C199.49 133.119 198.705 133.193 197.921 133.278C188.883 134.2 180.523 135.048 173.53 135.048L173.498 135.037ZM149.213 66.8955C153.525 74.5986 159.014 79.7164 163.591 80.2991C163.655 80.2991 170.012 81.0832 172.269 77.7773C172.333 77.682 173.88 75.2449 172.205 70.5192C171.506 68.5484 169.355 66.7577 165.816 65.2001C163.877 64.3419 161.493 63.5578 158.717 62.8479C158.717 63.0174 158.717 63.1764 158.717 63.3459C158.717 64.3737 158.314 65.3273 157.583 66.0266C156.736 66.8213 155.528 67.2345 154.267 67.1604C152.561 67.0544 150.876 66.9696 149.223 66.8955H149.213ZM227.409 65.7617C226.509 71.5788 226.731 75.6688 228.119 76.4953C228.204 76.5482 228.48 76.7072 228.723 76.6542C229.009 76.6012 229.359 76.2516 229.677 75.69C230.747 73.8039 231.213 70.1272 230.599 68.4107C230.217 67.3299 229.137 66.4399 227.42 65.7511L227.409 65.7617ZM148.397 65.3803C150.209 65.4439 152.19 65.5392 154.352 65.677C155.21 65.7299 156.015 65.465 156.555 64.9459C157 64.522 157.234 63.971 157.234 63.3459C157.234 63.0598 157.234 62.7737 157.234 62.477C155.644 62.1062 153.928 61.7459 152.105 61.4175C150.251 61.089 148.27 60.7711 146.172 60.485C146.829 62.1486 147.581 63.7909 148.397 65.3697V65.3803ZM214.377 62.5936C216.432 62.5936 218.318 62.6572 220.035 62.8055C222.472 62.9962 224.538 63.3353 226.233 63.8015C226.53 62.1592 226.848 60.7287 227.06 59.7857C228.607 53.1739 230.461 48.4058 231.955 44.5702C234.095 39.0815 235.399 35.7651 233.809 31.9188C232.601 28.9943 230.44 27.3838 228.872 26.2182C223.765 22.4144 213.381 18.8648 201.778 16.9681C188.576 14.8066 175.797 14.9867 165.806 17.4767C160.868 18.7058 156.64 20.4965 153.239 22.7958C149.552 25.2858 146.807 28.401 145.08 32.0565C142.866 36.7293 142.188 42.6311 143.099 49.1157C143.554 52.3263 144.402 55.6639 145.578 58.9274C147.994 59.2453 150.251 59.595 152.36 59.9764C154.087 60.2837 155.708 60.6122 157.223 60.9618C157.223 56.4162 157.265 51.8283 157.361 47.3039C157.446 43.341 157.573 39.3252 157.742 35.3624C157.848 32.9466 159.66 30.944 162.065 30.6049C166.886 29.9268 171.803 29.6089 176.666 29.6619C182.176 29.7149 187.718 30.2552 193.143 31.2407C195.548 31.6857 197.317 33.7836 197.339 36.2313C197.37 39.8868 197.423 43.5847 197.466 47.2191C197.519 51.0654 197.582 54.954 197.646 58.8003C197.667 60.0612 198.197 61.2161 199.14 62.0638C200.083 62.9115 201.291 63.3035 202.541 63.1975C206.917 62.8055 210.88 62.6042 214.366 62.6042L214.377 62.5936Z"/>
    </mask>
    <path d="M173.498 135.037C167.861 135.037 163.125 134.486 159.628 132.971C158.198 132.356 157.499 131.381 157.276 129.728C157.075 128.245 157.255 126.168 157.52 123.011C157.732 120.521 157.996 117.416 158.177 113.411C158.336 109.84 158.664 104.818 158.918 101.226C158.971 100.421 158.706 99.6576 158.155 99.0643C157.604 98.4709 156.863 98.1424 156.057 98.1424L131.878 97.9517C128.36 97.9199 125.457 95.2604 125.128 91.7638C124.673 86.9533 124.736 82.0686 125.309 77.2476C125.817 73.0198 126.506 71.4305 126.877 70.5722C126.94 70.4239 126.993 70.3179 127.014 70.2331C127.873 67.7537 130.659 66.3021 135.767 65.6664C138.553 65.3167 142.06 65.2107 146.701 65.3379C145.886 63.6955 145.144 62.0002 144.497 60.2837C135.862 59.1817 125.33 58.4612 113.039 58.1328C85.4789 57.3805 58.3537 58.8851 58.0888 58.8957C18.0791 61.142 -11.5785 63.7591 -40.2507 66.2915C-59.2913 67.9762 -77.2724 69.555 -97.2031 70.9431C-97.6163 70.9748 -97.966 70.6676 -97.9977 70.2543C-98.0295 69.8411 -97.7222 69.4914 -97.309 69.4596C-77.3889 68.0822 -59.4185 66.4928 -40.3778 64.8187C-11.6845 62.2863 17.9838 59.6691 58.0146 57.4228C58.2901 57.4122 85.4683 55.9076 113.081 56.6599C125.065 56.9884 135.396 57.6771 143.936 58.7261C142.855 55.6004 142.071 52.411 141.637 49.3383C140.683 42.5675 141.414 36.3796 143.745 31.442C145.589 27.5427 148.503 24.2262 152.413 21.5879C155.962 19.1932 160.349 17.3284 165.456 16.0569C175.638 13.5139 188.629 13.3232 202.022 15.5165C213.847 17.4555 224.474 21.1005 229.762 25.0421C231.383 26.25 233.82 28.0619 235.187 31.3678C236.999 35.7651 235.547 39.4842 233.343 45.1211C231.87 48.9038 230.027 53.619 228.511 60.1354C228.172 61.5764 227.886 62.9644 227.653 64.2783C229.984 65.1472 231.415 66.3657 231.976 67.9445C232.729 70.0636 232.231 74.196 230.948 76.4529C230.398 77.4277 229.741 77.9893 228.999 78.1376C228.458 78.2436 227.908 78.1376 227.346 77.7879C225.619 76.7602 225.036 73.7403 225.545 68.559C225.651 67.457 225.799 66.3551 225.968 65.3061C221.275 63.971 213.275 63.7379 202.668 64.6916C201.026 64.8399 199.373 64.2889 198.144 63.187C196.915 62.085 196.194 60.4956 196.163 58.8427C196.099 54.9964 196.035 51.0972 195.982 47.2509C195.929 43.6059 195.887 39.908 195.855 36.2525C195.834 34.5042 194.584 33.0207 192.878 32.7029C187.538 31.7281 182.081 31.1983 176.656 31.1453C171.866 31.0923 167.024 31.4102 162.277 32.0777C160.582 32.3108 159.3 33.7307 159.236 35.426C159.067 39.3782 158.94 43.3834 158.855 47.3357C158.749 51.966 158.706 56.6599 158.717 61.3221C167.416 63.4942 172.301 66.3657 173.604 70.0318C175.554 75.5204 173.583 78.4979 173.498 78.625C170.743 82.6726 163.708 81.8249 163.411 81.7826C160.783 81.4435 157.901 79.8435 155.083 77.1416C152.423 74.5986 149.859 71.1444 147.676 67.1604C147.623 67.0544 147.56 66.9485 147.507 66.8425C137.769 66.5352 129.685 67.1392 128.445 70.7311C128.392 70.8689 128.339 71.0172 128.265 71.1762C127.926 71.9603 127.29 73.4225 126.813 77.4277C126.252 82.1428 126.188 86.9215 126.633 91.626C126.887 94.3597 129.165 96.4471 131.92 96.4683L156.1 96.659C157.318 96.659 158.441 97.1676 159.279 98.0577C160.105 98.9477 160.518 100.113 160.434 101.332C160.19 104.913 159.861 109.936 159.692 113.485C159.512 117.512 159.247 120.637 159.035 123.138C158.505 129.464 158.452 130.83 160.253 131.615C167.723 134.846 181.646 133.437 197.762 131.795C198.547 131.71 199.331 131.636 200.125 131.551C200.348 131.53 200.517 131.424 200.687 131.212C202.329 129.114 201.079 120.203 200.062 113.04C198.854 104.468 198.239 99.5623 199.68 98.1424C200.878 96.9663 205.73 95.3452 233.926 94.9955C250.477 94.7836 272.993 95.0379 300.849 95.7478C348.276 96.9557 395.395 99.0961 395.872 99.1173C396.285 99.1385 396.592 99.4775 396.582 99.8907C396.561 100.304 396.222 100.622 395.808 100.601C395.342 100.579 348.233 98.4391 300.817 97.2312C272.971 96.5213 250.477 96.267 233.947 96.4789C224.146 96.6061 216.369 96.8921 210.827 97.3372C202.753 97.9835 201.079 98.8524 200.729 99.202C200.592 99.3398 200.168 100.06 200.422 103.663C200.602 106.206 201.058 109.427 201.545 112.839C202.965 122.926 203.76 129.718 201.863 132.134C201.45 132.664 200.909 132.971 200.284 133.034C199.49 133.119 198.705 133.193 197.921 133.278C188.883 134.2 180.523 135.048 173.53 135.048L173.498 135.037ZM149.213 66.8955C153.525 74.5986 159.014 79.7164 163.591 80.2991C163.655 80.2991 170.012 81.0832 172.269 77.7773C172.333 77.682 173.88 75.2449 172.205 70.5192C171.506 68.5484 169.355 66.7577 165.816 65.2001C163.877 64.3419 161.493 63.5578 158.717 62.8479C158.717 63.0174 158.717 63.1764 158.717 63.3459C158.717 64.3737 158.314 65.3273 157.583 66.0266C156.736 66.8213 155.528 67.2345 154.267 67.1604C152.561 67.0544 150.876 66.9696 149.223 66.8955H149.213ZM227.409 65.7617C226.509 71.5788 226.731 75.6688 228.119 76.4953C228.204 76.5482 228.48 76.7072 228.723 76.6542C229.009 76.6012 229.359 76.2516 229.677 75.69C230.747 73.8039 231.213 70.1272 230.599 68.4107C230.217 67.3299 229.137 66.4399 227.42 65.7511L227.409 65.7617ZM148.397 65.3803C150.209 65.4439 152.19 65.5392 154.352 65.677C155.21 65.7299 156.015 65.465 156.555 64.9459C157 64.522 157.234 63.971 157.234 63.3459C157.234 63.0598 157.234 62.7737 157.234 62.477C155.644 62.1062 153.928 61.7459 152.105 61.4175C150.251 61.089 148.27 60.7711 146.172 60.485C146.829 62.1486 147.581 63.7909 148.397 65.3697V65.3803ZM214.377 62.5936C216.432 62.5936 218.318 62.6572 220.035 62.8055C222.472 62.9962 224.538 63.3353 226.233 63.8015C226.53 62.1592 226.848 60.7287 227.06 59.7857C228.607 53.1739 230.461 48.4058 231.955 44.5702C234.095 39.0815 235.399 35.7651 233.809 31.9188C232.601 28.9943 230.44 27.3838 228.872 26.2182C223.765 22.4144 213.381 18.8648 201.778 16.9681C188.576 14.8066 175.797 14.9867 165.806 17.4767C160.868 18.7058 156.64 20.4965 153.239 22.7958C149.552 25.2858 146.807 28.401 145.08 32.0565C142.866 36.7293 142.188 42.6311 143.099 49.1157C143.554 52.3263 144.402 55.6639 145.578 58.9274C147.994 59.2453 150.251 59.595 152.36 59.9764C154.087 60.2837 155.708 60.6122 157.223 60.9618C157.223 56.4162 157.265 51.8283 157.361 47.3039C157.446 43.341 157.573 39.3252 157.742 35.3624C157.848 32.9466 159.66 30.944 162.065 30.6049C166.886 29.9268 171.803 29.6089 176.666 29.6619C182.176 29.7149 187.718 30.2552 193.143 31.2407C195.548 31.6857 197.317 33.7836 197.339 36.2313C197.37 39.8868 197.423 43.5847 197.466 47.2191C197.519 51.0654 197.582 54.954 197.646 58.8003C197.667 60.0612 198.197 61.2161 199.14 62.0638C200.083 62.9115 201.291 63.3035 202.541 63.1975C206.917 62.8055 210.88 62.6042 214.366 62.6042L214.377 62.5936Z" fill="#F66C51"/>
    <path d="M173.498 135.037C167.861 135.037 163.125 134.486 159.628 132.971C158.198 132.356 157.499 131.381 157.276 129.728C157.075 128.245 157.255 126.168 157.52 123.011C157.732 120.521 157.996 117.416 158.177 113.411C158.336 109.84 158.664 104.818 158.918 101.226C158.971 100.421 158.706 99.6576 158.155 99.0643C157.604 98.4709 156.863 98.1424 156.057 98.1424L131.878 97.9517C128.36 97.9199 125.457 95.2604 125.128 91.7638C124.673 86.9533 124.736 82.0686 125.309 77.2476C125.817 73.0198 126.506 71.4305 126.877 70.5722C126.94 70.4239 126.993 70.3179 127.014 70.2331C127.873 67.7537 130.659 66.3021 135.767 65.6664C138.553 65.3167 142.06 65.2107 146.701 65.3379C145.886 63.6955 145.144 62.0002 144.497 60.2837C135.862 59.1817 125.33 58.4612 113.039 58.1328C85.4789 57.3805 58.3537 58.8851 58.0888 58.8957C18.0791 61.142 -11.5785 63.7591 -40.2507 66.2915C-59.2913 67.9762 -77.2724 69.555 -97.2031 70.9431C-97.6163 70.9748 -97.966 70.6676 -97.9977 70.2543C-98.0295 69.8411 -97.7222 69.4914 -97.309 69.4596C-77.3889 68.0822 -59.4185 66.4928 -40.3778 64.8187C-11.6845 62.2863 17.9838 59.6691 58.0146 57.4228C58.2901 57.4122 85.4683 55.9076 113.081 56.6599C125.065 56.9884 135.396 57.6771 143.936 58.7261C142.855 55.6004 142.071 52.411 141.637 49.3383C140.683 42.5675 141.414 36.3796 143.745 31.442C145.589 27.5427 148.503 24.2262 152.413 21.5879C155.962 19.1932 160.349 17.3284 165.456 16.0569C175.638 13.5139 188.629 13.3232 202.022 15.5165C213.847 17.4555 224.474 21.1005 229.762 25.0421C231.383 26.25 233.82 28.0619 235.187 31.3678C236.999 35.7651 235.547 39.4842 233.343 45.1211C231.87 48.9038 230.027 53.619 228.511 60.1354C228.172 61.5764 227.886 62.9644 227.653 64.2783C229.984 65.1472 231.415 66.3657 231.976 67.9445C232.729 70.0636 232.231 74.196 230.948 76.4529C230.398 77.4277 229.741 77.9893 228.999 78.1376C228.458 78.2436 227.908 78.1376 227.346 77.7879C225.619 76.7602 225.036 73.7403 225.545 68.559C225.651 67.457 225.799 66.3551 225.968 65.3061C221.275 63.971 213.275 63.7379 202.668 64.6916C201.026 64.8399 199.373 64.2889 198.144 63.187C196.915 62.085 196.194 60.4956 196.163 58.8427C196.099 54.9964 196.035 51.0972 195.982 47.2509C195.929 43.6059 195.887 39.908 195.855 36.2525C195.834 34.5042 194.584 33.0207 192.878 32.7029C187.538 31.7281 182.081 31.1983 176.656 31.1453C171.866 31.0923 167.024 31.4102 162.277 32.0777C160.582 32.3108 159.3 33.7307 159.236 35.426C159.067 39.3782 158.94 43.3834 158.855 47.3357C158.749 51.966 158.706 56.6599 158.717 61.3221C167.416 63.4942 172.301 66.3657 173.604 70.0318C175.554 75.5204 173.583 78.4979 173.498 78.625C170.743 82.6726 163.708 81.8249 163.411 81.7826C160.783 81.4435 157.901 79.8435 155.083 77.1416C152.423 74.5986 149.859 71.1444 147.676 67.1604C147.623 67.0544 147.56 66.9485 147.507 66.8425C137.769 66.5352 129.685 67.1392 128.445 70.7311C128.392 70.8689 128.339 71.0172 128.265 71.1762C127.926 71.9603 127.29 73.4225 126.813 77.4277C126.252 82.1428 126.188 86.9215 126.633 91.626C126.887 94.3597 129.165 96.4471 131.92 96.4683L156.1 96.659C157.318 96.659 158.441 97.1676 159.279 98.0577C160.105 98.9477 160.518 100.113 160.434 101.332C160.19 104.913 159.861 109.936 159.692 113.485C159.512 117.512 159.247 120.637 159.035 123.138C158.505 129.464 158.452 130.83 160.253 131.615C167.723 134.846 181.646 133.437 197.762 131.795C198.547 131.71 199.331 131.636 200.125 131.551C200.348 131.53 200.517 131.424 200.687 131.212C202.329 129.114 201.079 120.203 200.062 113.04C198.854 104.468 198.239 99.5623 199.68 98.1424C200.878 96.9663 205.73 95.3452 233.926 94.9955C250.477 94.7836 272.993 95.0379 300.849 95.7478C348.276 96.9557 395.395 99.0961 395.872 99.1173C396.285 99.1385 396.592 99.4775 396.582 99.8907C396.561 100.304 396.222 100.622 395.808 100.601C395.342 100.579 348.233 98.4391 300.817 97.2312C272.971 96.5213 250.477 96.267 233.947 96.4789C224.146 96.6061 216.369 96.8921 210.827 97.3372C202.753 97.9835 201.079 98.8524 200.729 99.202C200.592 99.3398 200.168 100.06 200.422 103.663C200.602 106.206 201.058 109.427 201.545 112.839C202.965 122.926 203.76 129.718 201.863 132.134C201.45 132.664 200.909 132.971 200.284 133.034C199.49 133.119 198.705 133.193 197.921 133.278C188.883 134.2 180.523 135.048 173.53 135.048L173.498 135.037ZM149.213 66.8955C153.525 74.5986 159.014 79.7164 163.591 80.2991C163.655 80.2991 170.012 81.0832 172.269 77.7773C172.333 77.682 173.88 75.2449 172.205 70.5192C171.506 68.5484 169.355 66.7577 165.816 65.2001C163.877 64.3419 161.493 63.5578 158.717 62.8479C158.717 63.0174 158.717 63.1764 158.717 63.3459C158.717 64.3737 158.314 65.3273 157.583 66.0266C156.736 66.8213 155.528 67.2345 154.267 67.1604C152.561 67.0544 150.876 66.9696 149.223 66.8955H149.213ZM227.409 65.7617C226.509 71.5788 226.731 75.6688 228.119 76.4953C228.204 76.5482 228.48 76.7072 228.723 76.6542C229.009 76.6012 229.359 76.2516 229.677 75.69C230.747 73.8039 231.213 70.1272 230.599 68.4107C230.217 67.3299 229.137 66.4399 227.42 65.7511L227.409 65.7617ZM148.397 65.3803C150.209 65.4439 152.19 65.5392 154.352 65.677C155.21 65.7299 156.015 65.465 156.555 64.9459C157 64.522 157.234 63.971 157.234 63.3459C157.234 63.0598 157.234 62.7737 157.234 62.477C155.644 62.1062 153.928 61.7459 152.105 61.4175C150.251 61.089 148.27 60.7711 146.172 60.485C146.829 62.1486 147.581 63.7909 148.397 65.3697V65.3803ZM214.377 62.5936C216.432 62.5936 218.318 62.6572 220.035 62.8055C222.472 62.9962 224.538 63.3353 226.233 63.8015C226.53 62.1592 226.848 60.7287 227.06 59.7857C228.607 53.1739 230.461 48.4058 231.955 44.5702C234.095 39.0815 235.399 35.7651 233.809 31.9188C232.601 28.9943 230.44 27.3838 228.872 26.2182C223.765 22.4144 213.381 18.8648 201.778 16.9681C188.576 14.8066 175.797 14.9867 165.806 17.4767C160.868 18.7058 156.64 20.4965 153.239 22.7958C149.552 25.2858 146.807 28.401 145.08 32.0565C142.866 36.7293 142.188 42.6311 143.099 49.1157C143.554 52.3263 144.402 55.6639 145.578 58.9274C147.994 59.2453 150.251 59.595 152.36 59.9764C154.087 60.2837 155.708 60.6122 157.223 60.9618C157.223 56.4162 157.265 51.8283 157.361 47.3039C157.446 43.341 157.573 39.3252 157.742 35.3624C157.848 32.9466 159.66 30.944 162.065 30.6049C166.886 29.9268 171.803 29.6089 176.666 29.6619C182.176 29.7149 187.718 30.2552 193.143 31.2407C195.548 31.6857 197.317 33.7836 197.339 36.2313C197.37 39.8868 197.423 43.5847 197.466 47.2191C197.519 51.0654 197.582 54.954 197.646 58.8003C197.667 60.0612 198.197 61.2161 199.14 62.0638C200.083 62.9115 201.291 63.3035 202.541 63.1975C206.917 62.8055 210.88 62.6042 214.366 62.6042L214.377 62.5936Z" stroke="#F66C51" stroke-width="2" mask="url(#path-2-outside-1_152_20)"/>
  </g>
  <defs>
    <clipPath id="clip0_152_20">
      <path d="M0.5 12C0.5 5.37258 5.87258 0 12.5 0H351.25C357.877 0 363.25 5.37258 363.25 12V150H0.5V12Z" fill="white"/>
    </clipPath>
  </defs>
</svg>
