<svg width="363" height="150" viewBox="0 0 363 150" fill="none" xmlns="http://www.w3.org/2000/svg">
  <g clip-path="url(#clip0_152_28)">
    <path d="M0.25 12C0.25 5.37258 5.62258 0 12.25 0H351C357.627 0 363 5.37258 363 12V150H0.25V12Z" fill="#284092"/>
    <mask id="path-2-outside-1_152_28" maskUnits="userSpaceOnUse" x="76.7266" y="-41.1216" width="466.578"
          height="231.623" fill="black">
      <rect fill="white" x="76.7266" y="-41.1216" width="466.578" height="231.623"/>
      <path
        d="M168.14 179.262C167.395 179.369 166.729 179.123 166.268 178.591C165.101 177.23 165.831 174.343 166.084 173.487C166.084 173.487 166.082 173.47 166.09 173.469C167.08 170.306 169.208 167.466 172.237 165.256C172.268 165.235 172.291 165.215 172.322 165.193C176.01 154.114 180.415 141.72 185.894 129.019C183.977 129.516 181.82 129.893 179.416 130.151C173.491 130.786 166.868 130.607 161.035 130.461C157.291 130.365 153.762 130.272 150.879 130.403C150.871 130.405 150.854 130.407 150.846 130.408C146.384 130.483 143.644 131.311 142.201 133.037C140.847 134.665 140.51 137.266 141.154 141.228C144.346 160.781 141.865 167.837 140.229 172.501C139.289 175.18 137.737 179.602 134.718 180.034C134.626 180.047 134.543 180.059 134.449 180.064C132.817 180.169 131.699 179.032 131.004 178.175C130.154 177.128 129.314 175.669 128.239 173.825C127.094 171.846 125.666 169.379 123.761 166.629C119.889 161.038 115.877 155.252 113.044 155.376C110.865 155.475 108.377 159.262 106.213 165.787C104.933 169.658 103.706 174.622 102.786 179.765C102.663 180.457 102.003 180.91 101.311 180.787C100.619 180.664 100.166 180.003 100.289 179.311C101.235 174.054 102.487 168.966 103.812 164.986C106.478 156.965 109.46 152.995 112.937 152.839C117.169 152.651 120.999 158.181 125.842 165.188C127.801 168.023 129.261 170.529 130.43 172.555C131.995 175.259 133.354 177.6 134.284 177.535C134.825 177.5 135.511 176.805 136.17 175.626C136.883 174.346 137.429 172.8 137.83 171.667C138.581 169.519 139.613 166.589 140.002 161.915C140.441 156.576 140.004 149.946 138.644 141.639C137.871 136.892 138.38 133.652 140.245 131.413C142.19 129.086 145.529 127.968 150.773 127.875C153.741 127.74 157.313 127.835 161.091 127.934C169.786 128.158 180.117 128.429 187.22 125.996C187.22 125.996 187.225 125.978 187.233 125.968C188.424 123.262 189.677 120.505 190.89 117.83C192.777 113.667 194.706 109.43 196.51 105.16C196.943 98.764 197.141 91.9833 197.228 85.1333C197.016 85.3258 196.799 85.5361 196.592 85.7621C191.578 91.2772 188.113 97.9536 185.394 103.883C184.739 106.76 183.903 109.619 182.618 112.031C182.516 112.217 182.376 112.373 182.197 112.493C181.722 112.808 181.141 112.806 180.687 112.496C179.911 111.966 180.11 111.084 180.195 110.671C180.2 110.645 180.205 110.618 180.211 110.6C180.219 110.539 180.228 110.478 180.246 110.425C180.84 108.137 181.662 106.133 182.669 103.744C182.668 103.735 182.675 103.726 182.682 103.716C182.78 103.506 182.877 103.287 182.973 103.068C183.316 101.526 183.613 99.9636 183.887 98.4816C183.996 97.9283 184.096 97.3762 184.198 96.8408C184.464 95.3003 184.742 93.724 185.012 92.2086C186.287 85.0177 187.595 77.583 187.947 70.2597C187.978 68.2747 187.327 66.7632 186.836 66.5518C186.617 66.455 186.079 66.6344 185.264 67.4341C183.786 68.9175 182.732 71.2708 181.897 73.3707C179.791 78.6915 178.187 84.2991 176.634 89.7286C176.161 91.3671 175.683 93.0403 175.189 94.7158C174.956 97.5577 174.701 100.309 174.443 102.915C174.354 103.79 173.999 106.794 173.219 108.912C172.995 109.559 172.736 110.074 172.465 110.446C171.799 111.335 171.057 111.339 170.679 111.265C170.284 111.185 169.583 110.884 169.3 109.738C169.177 109.235 169.136 108.592 169.18 107.826C169.335 105.097 170.237 102.211 171.109 99.4229C171.325 98.7261 171.538 98.064 171.726 97.4139C171.726 97.4139 171.725 97.4055 171.724 97.3972C172.053 96.3598 172.364 95.3081 172.675 94.2647C173.2 87.7958 173.621 80.8382 173.649 73.9368C173.629 73.3249 173.623 72.6856 173.612 72.0725C173.555 68.393 173.488 64.5868 171.902 61.553C171.41 60.6843 170.791 60.1754 170.177 60.1182C169.528 60.0574 168.794 60.4698 168.107 61.2767C168.107 61.2767 168.1 61.2862 168.093 61.2958C167.491 61.9795 166.904 62.9512 166.394 64.0998C163.004 72.9081 161.994 82.6049 161.103 91.1664L161.072 91.5465C161.004 92.3244 160.937 93.1108 160.88 93.9043C161.852 96.9407 162.767 100.054 163.422 103.195C163.425 103.22 163.429 103.245 163.433 103.27L163.479 103.597C163.843 106.08 164.388 109.826 162.472 111.705C162.316 111.864 162.117 111.97 161.895 112.027C161.303 112.18 160.698 112.07 160.195 111.715C159.124 110.972 158.478 109.144 158.118 105.79C158.115 105.773 158.114 105.765 158.112 105.748C157.808 101.899 158.01 98.0028 158.301 94.1882C157.994 93.2418 157.69 92.3037 157.385 91.3657C156.777 89.5064 156.144 87.5909 155.564 85.6849C155.168 84.4697 154.777 83.2281 154.392 82.0284C153.721 79.905 153.024 77.717 152.308 75.5745C151.075 71.8498 149.612 69.7373 147.962 69.2992C147.163 69.089 146.304 69.4083 145.621 70.1805C143.477 72.7922 143.943 76.823 144.359 80.3829L144.42 80.8095C144.691 83.2975 145.202 86.2719 145.738 89.4219C147.626 100.462 149.978 114.211 145.217 122.208C145.218 122.216 145.202 122.227 145.204 122.235C143.652 124.694 140.902 126.232 137.156 126.768C136.06 126.925 134.885 126.999 133.618 126.976C129.308 126.918 124.288 125.767 120.523 123.976C118.435 122.977 117.129 121.072 116.666 118.313C116.288 116.088 116.457 113.631 116.619 111.243C116.709 109.967 116.792 108.76 116.776 107.695C116.773 107.67 116.77 107.653 116.775 107.627C117.127 98.4599 116.927 87.7583 116.712 76.4186C116.39 59.5028 116.062 42.0075 117.609 28.2473C117.612 28.2127 117.616 28.178 117.626 28.1338C117.756 27.492 117.858 26.8288 117.962 26.1822C118.206 24.6107 118.468 22.9853 119.102 21.5715C119.865 19.8659 121.078 18.6766 122.792 17.9532C125.436 16.8065 131.59 16.7536 136.091 16.7154C137.352 16.7055 138.443 16.6945 139.207 16.662C139.215 16.6608 139.232 16.6585 139.24 16.6573C157.628 16.3898 175.039 17.3463 192.463 19.5899C192.488 19.5863 192.515 19.5995 192.542 19.6042C196.291 20.3395 198.598 22.1434 199.597 25.1332C200.433 27.6342 200.218 30.6613 200.013 33.5844C199.931 34.6803 199.855 35.818 199.833 36.9139C199.625 44.5837 199.677 53.2322 199.74 62.3826C199.777 68.3614 199.824 74.5948 199.778 80.8329C200.739 80.6271 201.65 80.6759 202.448 80.9972C203.717 81.5155 205.214 82.9145 205.122 86.624C205.052 89.0583 204.237 91.7103 203.474 94.0133C202.149 97.9334 200.619 101.849 198.981 105.728C198.66 110.401 198.214 114.861 197.611 118.994C197.602 119.055 197.586 119.117 197.568 119.17C196.907 121.408 195.841 123.268 194.418 124.709C194.402 124.72 194.396 124.738 194.381 124.749C192.987 126.041 191.227 127.104 189.079 127.957C183.677 140.238 179.3 152.294 175.621 163.201C177.603 162.26 179.751 161.586 181.914 161.251C182.047 161.231 182.173 161.213 182.307 161.194C187.743 160.416 192.17 162.548 193.667 166.688C193.851 167.139 194.006 167.561 194.13 167.953C198.915 160.482 204.111 153.199 209.591 146.285C247.244 98.76 301.349 64.1514 370.407 43.4422C416.634 29.5779 468.989 22.0923 526.006 21.1868C526.704 21.1723 527.28 21.7386 527.294 22.4365C527.309 23.1344 526.751 23.7094 526.045 23.7251C497.613 24.1754 470.346 26.2687 444.445 29.9761C418.545 33.6836 394.109 38.9824 371.139 45.8727C302.589 66.4324 248.903 100.751 211.583 147.861C205.786 155.179 200.313 162.911 195.304 170.849C195.277 170.896 195.241 170.944 195.197 170.993C194.576 171.722 193.909 171.715 193.567 171.653C192.583 171.452 192.269 170.456 192.116 169.983C192.07 169.836 192.021 169.672 191.96 169.484C191.799 168.961 191.603 168.306 191.321 167.647C191.317 167.621 191.307 167.606 191.295 167.582C190.725 165.99 189.589 164.847 187.906 164.183C186.342 163.57 184.366 163.418 182.333 163.76C182.333 163.76 182.324 163.761 182.316 163.762C179.402 164.214 176.695 165.276 174.434 166.769C173.791 168.722 173.16 170.63 172.563 172.483C172.565 172.499 172.55 172.51 172.552 172.527L172.449 172.815C171.609 175.12 170.569 177.992 168.552 179.101C168.417 179.171 168.271 179.226 168.121 179.248L168.14 179.262ZM168.509 174.207C168.302 174.911 168.196 175.6 168.169 176.125C168.971 175.054 169.618 173.254 170.091 171.966L170.189 171.696C170.35 171.212 170.51 170.719 170.669 170.219C169.7 171.441 168.962 172.785 168.517 174.206L168.509 174.207ZM195.835 113.025C194.963 114.985 194.072 116.931 193.196 118.857C192.372 120.674 191.528 122.528 190.701 124.379C191.423 123.943 192.079 123.456 192.66 122.921C193.762 121.798 194.602 120.329 195.14 118.545C195.397 116.767 195.629 114.924 195.835 113.025ZM119.33 107.705C119.342 108.865 119.255 110.106 119.162 111.426C118.859 115.746 118.552 120.22 121.629 121.683C125.083 123.332 129.697 124.387 133.664 124.434C135.887 124.465 137.811 124.19 139.401 123.612C141.065 123.016 142.299 122.096 143.065 120.886C147.334 113.684 145.074 100.461 143.255 89.8371C142.714 86.6537 142.198 83.6459 141.908 81.0838L141.848 80.6655C141.414 76.8009 140.853 71.9898 143.697 68.5438C143.704 68.5342 143.712 68.5246 143.719 68.5151C145.04 67.0114 146.87 66.3823 148.617 66.8408C152.041 67.7506 153.739 71.8014 154.727 74.7672C155.446 76.9265 156.144 79.1228 156.825 81.2534C157.21 82.4531 157.601 83.6947 157.997 84.9099C157.997 84.9099 157.999 84.9267 158 84.935C158.291 85.8922 158.591 86.8565 158.908 87.8184C159.761 79.8855 160.927 71.2164 164.046 63.1383C164.052 63.1204 164.058 63.1025 164.073 63.0834C164.684 61.6898 165.424 60.4826 166.193 59.5957C167.428 58.147 168.937 57.4188 170.426 57.5643C171.897 57.7037 173.214 58.6762 174.127 60.2869C174.128 60.2952 174.139 60.3108 174.149 60.3179C176.026 63.8907 176.095 68.1916 176.161 71.9894C176.175 72.6276 176.185 73.2323 176.195 73.837C176.197 73.8537 176.198 73.8621 176.201 73.8788C176.191 76.9106 176.105 79.9448 175.962 82.9444C177.027 79.4116 178.175 75.8669 179.541 72.4104C180.476 70.0572 181.677 67.4182 183.474 65.6073C183.474 65.6073 183.474 65.6073 183.483 65.6061C185.407 63.7258 186.912 63.8091 187.84 64.2056C189.859 65.0775 190.522 68.0387 190.48 70.3069C190.481 70.3152 190.483 70.332 190.484 70.3403C190.132 77.8345 188.802 85.3577 187.513 92.6274C187.384 93.3373 187.256 94.0556 187.137 94.7726C189.226 91.0591 191.699 87.3503 194.729 84.0142C194.729 84.0142 194.737 84.013 194.744 84.0034C195.551 83.1368 196.406 82.4339 197.276 81.8911C197.323 75.3029 197.282 68.7014 197.241 62.3904C197.182 53.2137 197.128 44.5485 197.338 36.8356C197.362 35.6884 197.451 34.5232 197.528 33.3938C197.726 30.5998 197.918 27.9515 197.237 25.932C196.762 24.5232 195.758 22.8145 192.139 22.0948C174.854 19.8739 157.58 18.915 139.338 19.1871C138.531 19.2172 137.432 19.2294 136.154 19.2417C132.36 19.2725 126.018 19.3267 123.849 20.2689C123.849 20.2689 123.84 20.2701 123.832 20.2713C121.457 21.2685 121.024 23.311 120.509 26.5688C120.406 27.2237 120.298 27.8965 120.164 28.573C118.645 42.167 118.974 59.5512 119.289 76.357C119.506 87.7134 119.703 98.4497 119.351 107.677L119.33 107.705ZM160.648 105.521C160.823 107.101 161.031 108.079 161.22 108.683C161.464 107.283 161.158 105.209 160.978 103.946L160.936 103.653C160.803 103.024 160.662 102.395 160.512 101.768C160.514 103.031 160.556 104.28 160.648 105.521ZM199.783 83.4871C199.733 88.3259 199.63 93.155 199.441 97.8516C200.022 96.3087 200.578 94.7693 201.1 93.2264C201.804 91.111 202.555 88.6645 202.614 86.5732C202.639 85.5538 202.53 83.7768 201.515 83.3672C201.108 83.2036 200.498 83.2396 199.784 83.4955L199.783 83.4871Z"/>
    </mask>
    <path
      d="M168.14 179.262C167.395 179.369 166.729 179.123 166.268 178.591C165.101 177.23 165.831 174.343 166.084 173.487C166.084 173.487 166.082 173.47 166.09 173.469C167.08 170.306 169.208 167.466 172.237 165.256C172.268 165.235 172.291 165.215 172.322 165.193C176.01 154.114 180.415 141.72 185.894 129.019C183.977 129.516 181.82 129.893 179.416 130.151C173.491 130.786 166.868 130.607 161.035 130.461C157.291 130.365 153.762 130.272 150.879 130.403C150.871 130.405 150.854 130.407 150.846 130.408C146.384 130.483 143.644 131.311 142.201 133.037C140.847 134.665 140.51 137.266 141.154 141.228C144.346 160.781 141.865 167.837 140.229 172.501C139.289 175.18 137.737 179.602 134.718 180.034C134.626 180.047 134.543 180.059 134.449 180.064C132.817 180.169 131.699 179.032 131.004 178.175C130.154 177.128 129.314 175.669 128.239 173.825C127.094 171.846 125.666 169.379 123.761 166.629C119.889 161.038 115.877 155.252 113.044 155.376C110.865 155.475 108.377 159.262 106.213 165.787C104.933 169.658 103.706 174.622 102.786 179.765C102.663 180.457 102.003 180.91 101.311 180.787C100.619 180.664 100.166 180.003 100.289 179.311C101.235 174.054 102.487 168.966 103.812 164.986C106.478 156.965 109.46 152.995 112.937 152.839C117.169 152.651 120.999 158.181 125.842 165.188C127.801 168.023 129.261 170.529 130.43 172.555C131.995 175.259 133.354 177.6 134.284 177.535C134.825 177.5 135.511 176.805 136.17 175.626C136.883 174.346 137.429 172.8 137.83 171.667C138.581 169.519 139.613 166.589 140.002 161.915C140.441 156.576 140.004 149.946 138.644 141.639C137.871 136.892 138.38 133.652 140.245 131.413C142.19 129.086 145.529 127.968 150.773 127.875C153.741 127.74 157.313 127.835 161.091 127.934C169.786 128.158 180.117 128.429 187.22 125.996C187.22 125.996 187.225 125.978 187.233 125.968C188.424 123.262 189.677 120.505 190.89 117.83C192.777 113.667 194.706 109.43 196.51 105.16C196.943 98.764 197.141 91.9833 197.228 85.1333C197.016 85.3258 196.799 85.5361 196.592 85.7621C191.578 91.2772 188.113 97.9536 185.394 103.883C184.739 106.76 183.903 109.619 182.618 112.031C182.516 112.217 182.376 112.373 182.197 112.493C181.722 112.808 181.141 112.806 180.687 112.496C179.911 111.966 180.11 111.084 180.195 110.671C180.2 110.645 180.205 110.618 180.211 110.6C180.219 110.539 180.228 110.478 180.246 110.425C180.84 108.137 181.662 106.133 182.669 103.744C182.668 103.735 182.675 103.726 182.682 103.716C182.78 103.506 182.877 103.287 182.973 103.068C183.316 101.526 183.613 99.9636 183.887 98.4816C183.996 97.9283 184.096 97.3762 184.198 96.8408C184.464 95.3003 184.742 93.724 185.012 92.2086C186.287 85.0177 187.595 77.583 187.947 70.2597C187.978 68.2747 187.327 66.7632 186.836 66.5518C186.617 66.455 186.079 66.6344 185.264 67.4341C183.786 68.9175 182.732 71.2708 181.897 73.3707C179.791 78.6915 178.187 84.2991 176.634 89.7286C176.161 91.3671 175.683 93.0403 175.189 94.7158C174.956 97.5577 174.701 100.309 174.443 102.915C174.354 103.79 173.999 106.794 173.219 108.912C172.995 109.559 172.736 110.074 172.465 110.446C171.799 111.335 171.057 111.339 170.679 111.265C170.284 111.185 169.583 110.884 169.3 109.738C169.177 109.235 169.136 108.592 169.18 107.826C169.335 105.097 170.237 102.211 171.109 99.4229C171.325 98.7261 171.538 98.064 171.726 97.4139C171.726 97.4139 171.725 97.4055 171.724 97.3972C172.053 96.3598 172.364 95.3081 172.675 94.2647C173.2 87.7958 173.621 80.8382 173.649 73.9368C173.629 73.3249 173.623 72.6856 173.612 72.0725C173.555 68.393 173.488 64.5868 171.902 61.553C171.41 60.6843 170.791 60.1754 170.177 60.1182C169.528 60.0574 168.794 60.4698 168.107 61.2767C168.107 61.2767 168.1 61.2862 168.093 61.2958C167.491 61.9795 166.904 62.9512 166.394 64.0998C163.004 72.9081 161.994 82.6049 161.103 91.1664L161.072 91.5465C161.004 92.3244 160.937 93.1108 160.88 93.9043C161.852 96.9407 162.767 100.054 163.422 103.195C163.425 103.22 163.429 103.245 163.433 103.27L163.479 103.597C163.843 106.08 164.388 109.826 162.472 111.705C162.316 111.864 162.117 111.97 161.895 112.027C161.303 112.18 160.698 112.07 160.195 111.715C159.124 110.972 158.478 109.144 158.118 105.79C158.115 105.773 158.114 105.765 158.112 105.748C157.808 101.899 158.01 98.0028 158.301 94.1882C157.994 93.2418 157.69 92.3037 157.385 91.3657C156.777 89.5064 156.144 87.5909 155.564 85.6849C155.168 84.4697 154.777 83.2281 154.392 82.0284C153.721 79.905 153.024 77.717 152.308 75.5745C151.075 71.8498 149.612 69.7373 147.962 69.2992C147.163 69.089 146.304 69.4083 145.621 70.1805C143.477 72.7922 143.943 76.823 144.359 80.3829L144.42 80.8095C144.691 83.2975 145.202 86.2719 145.738 89.4219C147.626 100.462 149.978 114.211 145.217 122.208C145.218 122.216 145.202 122.227 145.204 122.235C143.652 124.694 140.902 126.232 137.156 126.768C136.06 126.925 134.885 126.999 133.618 126.976C129.308 126.918 124.288 125.767 120.523 123.976C118.435 122.977 117.129 121.072 116.666 118.313C116.288 116.088 116.457 113.631 116.619 111.243C116.709 109.967 116.792 108.76 116.776 107.695C116.773 107.67 116.77 107.653 116.775 107.627C117.127 98.4599 116.927 87.7583 116.712 76.4186C116.39 59.5028 116.062 42.0075 117.609 28.2473C117.612 28.2127 117.616 28.178 117.626 28.1338C117.756 27.492 117.858 26.8288 117.962 26.1822C118.206 24.6107 118.468 22.9853 119.102 21.5715C119.865 19.8659 121.078 18.6766 122.792 17.9532C125.436 16.8065 131.59 16.7536 136.091 16.7154C137.352 16.7055 138.443 16.6945 139.207 16.662C139.215 16.6608 139.232 16.6585 139.24 16.6573C157.628 16.3898 175.039 17.3463 192.463 19.5899C192.488 19.5863 192.515 19.5995 192.542 19.6042C196.291 20.3395 198.598 22.1434 199.597 25.1332C200.433 27.6342 200.218 30.6613 200.013 33.5844C199.931 34.6803 199.855 35.818 199.833 36.9139C199.625 44.5837 199.677 53.2322 199.74 62.3826C199.777 68.3614 199.824 74.5948 199.778 80.8329C200.739 80.6271 201.65 80.6759 202.448 80.9972C203.717 81.5155 205.214 82.9145 205.122 86.624C205.052 89.0583 204.237 91.7103 203.474 94.0133C202.149 97.9334 200.619 101.849 198.981 105.728C198.66 110.401 198.214 114.861 197.611 118.994C197.602 119.055 197.586 119.117 197.568 119.17C196.907 121.408 195.841 123.268 194.418 124.709C194.402 124.72 194.396 124.738 194.381 124.749C192.987 126.041 191.227 127.104 189.079 127.957C183.677 140.238 179.3 152.294 175.621 163.201C177.603 162.26 179.751 161.586 181.914 161.251C182.047 161.231 182.173 161.213 182.307 161.194C187.743 160.416 192.17 162.548 193.667 166.688C193.851 167.139 194.006 167.561 194.13 167.953C198.915 160.482 204.111 153.199 209.591 146.285C247.244 98.76 301.349 64.1514 370.407 43.4422C416.634 29.5779 468.989 22.0923 526.006 21.1868C526.704 21.1723 527.28 21.7386 527.294 22.4365C527.309 23.1344 526.751 23.7094 526.045 23.7251C497.613 24.1754 470.346 26.2687 444.445 29.9761C418.545 33.6836 394.109 38.9824 371.139 45.8727C302.589 66.4324 248.903 100.751 211.583 147.861C205.786 155.179 200.313 162.911 195.304 170.849C195.277 170.896 195.241 170.944 195.197 170.993C194.576 171.722 193.909 171.715 193.567 171.653C192.583 171.452 192.269 170.456 192.116 169.983C192.07 169.836 192.021 169.672 191.96 169.484C191.799 168.961 191.603 168.306 191.321 167.647C191.317 167.621 191.307 167.606 191.295 167.582C190.725 165.99 189.589 164.847 187.906 164.183C186.342 163.57 184.366 163.418 182.333 163.76C182.333 163.76 182.324 163.761 182.316 163.762C179.402 164.214 176.695 165.276 174.434 166.769C173.791 168.722 173.16 170.63 172.563 172.483C172.565 172.499 172.55 172.51 172.552 172.527L172.449 172.815C171.609 175.12 170.569 177.992 168.552 179.101C168.417 179.171 168.271 179.226 168.121 179.248L168.14 179.262ZM168.509 174.207C168.302 174.911 168.196 175.6 168.169 176.125C168.971 175.054 169.618 173.254 170.091 171.966L170.189 171.696C170.35 171.212 170.51 170.719 170.669 170.219C169.7 171.441 168.962 172.785 168.517 174.206L168.509 174.207ZM195.835 113.025C194.963 114.985 194.072 116.931 193.196 118.857C192.372 120.674 191.528 122.528 190.701 124.379C191.423 123.943 192.079 123.456 192.66 122.921C193.762 121.798 194.602 120.329 195.14 118.545C195.397 116.767 195.629 114.924 195.835 113.025ZM119.33 107.705C119.342 108.865 119.255 110.106 119.162 111.426C118.859 115.746 118.552 120.22 121.629 121.683C125.083 123.332 129.697 124.387 133.664 124.434C135.887 124.465 137.811 124.19 139.401 123.612C141.065 123.016 142.299 122.096 143.065 120.886C147.334 113.684 145.074 100.461 143.255 89.8371C142.714 86.6537 142.198 83.6459 141.908 81.0838L141.848 80.6655C141.414 76.8009 140.853 71.9898 143.697 68.5438C143.704 68.5342 143.712 68.5246 143.719 68.5151C145.04 67.0114 146.87 66.3823 148.617 66.8408C152.041 67.7506 153.739 71.8014 154.727 74.7672C155.446 76.9265 156.144 79.1228 156.825 81.2534C157.21 82.4531 157.601 83.6947 157.997 84.9099C157.997 84.9099 157.999 84.9267 158 84.935C158.291 85.8922 158.591 86.8565 158.908 87.8184C159.761 79.8855 160.927 71.2164 164.046 63.1383C164.052 63.1204 164.058 63.1025 164.073 63.0834C164.684 61.6898 165.424 60.4826 166.193 59.5957C167.428 58.147 168.937 57.4188 170.426 57.5643C171.897 57.7037 173.214 58.6762 174.127 60.2869C174.128 60.2952 174.139 60.3108 174.149 60.3179C176.026 63.8907 176.095 68.1916 176.161 71.9894C176.175 72.6276 176.185 73.2323 176.195 73.837C176.197 73.8537 176.198 73.8621 176.201 73.8788C176.191 76.9106 176.105 79.9448 175.962 82.9444C177.027 79.4116 178.175 75.8669 179.541 72.4104C180.476 70.0572 181.677 67.4182 183.474 65.6073C183.474 65.6073 183.474 65.6073 183.483 65.6061C185.407 63.7258 186.912 63.8091 187.84 64.2056C189.859 65.0775 190.522 68.0387 190.48 70.3069C190.481 70.3152 190.483 70.332 190.484 70.3403C190.132 77.8345 188.802 85.3577 187.513 92.6274C187.384 93.3373 187.256 94.0556 187.137 94.7726C189.226 91.0591 191.699 87.3503 194.729 84.0142C194.729 84.0142 194.737 84.013 194.744 84.0034C195.551 83.1368 196.406 82.4339 197.276 81.8911C197.323 75.3029 197.282 68.7014 197.241 62.3904C197.182 53.2137 197.128 44.5485 197.338 36.8356C197.362 35.6884 197.451 34.5232 197.528 33.3938C197.726 30.5998 197.918 27.9515 197.237 25.932C196.762 24.5232 195.758 22.8145 192.139 22.0948C174.854 19.8739 157.58 18.915 139.338 19.1871C138.531 19.2172 137.432 19.2294 136.154 19.2417C132.36 19.2725 126.018 19.3267 123.849 20.2689C123.849 20.2689 123.84 20.2701 123.832 20.2713C121.457 21.2685 121.024 23.311 120.509 26.5688C120.406 27.2237 120.298 27.8965 120.164 28.573C118.645 42.167 118.974 59.5512 119.289 76.357C119.506 87.7134 119.703 98.4497 119.351 107.677L119.33 107.705ZM160.648 105.521C160.823 107.101 161.031 108.079 161.22 108.683C161.464 107.283 161.158 105.209 160.978 103.946L160.936 103.653C160.803 103.024 160.662 102.395 160.512 101.768C160.514 103.031 160.556 104.28 160.648 105.521ZM199.783 83.4871C199.733 88.3259 199.63 93.155 199.441 97.8516C200.022 96.3087 200.578 94.7693 201.1 93.2264C201.804 91.111 202.555 88.6645 202.614 86.5732C202.639 85.5538 202.53 83.7768 201.515 83.3672C201.108 83.2036 200.498 83.2396 199.784 83.4955L199.783 83.4871Z"
      fill="#DCEEFA"/>
    <path
      d="M168.14 179.262C167.395 179.369 166.729 179.123 166.268 178.591C165.101 177.23 165.831 174.343 166.084 173.487C166.084 173.487 166.082 173.47 166.09 173.469C167.08 170.306 169.208 167.466 172.237 165.256C172.268 165.235 172.291 165.215 172.322 165.193C176.01 154.114 180.415 141.72 185.894 129.019C183.977 129.516 181.82 129.893 179.416 130.151C173.491 130.786 166.868 130.607 161.035 130.461C157.291 130.365 153.762 130.272 150.879 130.403C150.871 130.405 150.854 130.407 150.846 130.408C146.384 130.483 143.644 131.311 142.201 133.037C140.847 134.665 140.51 137.266 141.154 141.228C144.346 160.781 141.865 167.837 140.229 172.501C139.289 175.18 137.737 179.602 134.718 180.034C134.626 180.047 134.543 180.059 134.449 180.064C132.817 180.169 131.699 179.032 131.004 178.175C130.154 177.128 129.314 175.669 128.239 173.825C127.094 171.846 125.666 169.379 123.761 166.629C119.889 161.038 115.877 155.252 113.044 155.376C110.865 155.475 108.377 159.262 106.213 165.787C104.933 169.658 103.706 174.622 102.786 179.765C102.663 180.457 102.003 180.91 101.311 180.787C100.619 180.664 100.166 180.003 100.289 179.311C101.235 174.054 102.487 168.966 103.812 164.986C106.478 156.965 109.46 152.995 112.937 152.839C117.169 152.651 120.999 158.181 125.842 165.188C127.801 168.023 129.261 170.529 130.43 172.555C131.995 175.259 133.354 177.6 134.284 177.535C134.825 177.5 135.511 176.805 136.17 175.626C136.883 174.346 137.429 172.8 137.83 171.667C138.581 169.519 139.613 166.589 140.002 161.915C140.441 156.576 140.004 149.946 138.644 141.639C137.871 136.892 138.38 133.652 140.245 131.413C142.19 129.086 145.529 127.968 150.773 127.875C153.741 127.74 157.313 127.835 161.091 127.934C169.786 128.158 180.117 128.429 187.22 125.996C187.22 125.996 187.225 125.978 187.233 125.968C188.424 123.262 189.677 120.505 190.89 117.83C192.777 113.667 194.706 109.43 196.51 105.16C196.943 98.764 197.141 91.9833 197.228 85.1333C197.016 85.3258 196.799 85.5361 196.592 85.7621C191.578 91.2772 188.113 97.9536 185.394 103.883C184.739 106.76 183.903 109.619 182.618 112.031C182.516 112.217 182.376 112.373 182.197 112.493C181.722 112.808 181.141 112.806 180.687 112.496C179.911 111.966 180.11 111.084 180.195 110.671C180.2 110.645 180.205 110.618 180.211 110.6C180.219 110.539 180.228 110.478 180.246 110.425C180.84 108.137 181.662 106.133 182.669 103.744C182.668 103.735 182.675 103.726 182.682 103.716C182.78 103.506 182.877 103.287 182.973 103.068C183.316 101.526 183.613 99.9636 183.887 98.4816C183.996 97.9283 184.096 97.3762 184.198 96.8408C184.464 95.3003 184.742 93.724 185.012 92.2086C186.287 85.0177 187.595 77.583 187.947 70.2597C187.978 68.2747 187.327 66.7632 186.836 66.5518C186.617 66.455 186.079 66.6344 185.264 67.4341C183.786 68.9175 182.732 71.2708 181.897 73.3707C179.791 78.6915 178.187 84.2991 176.634 89.7286C176.161 91.3671 175.683 93.0403 175.189 94.7158C174.956 97.5577 174.701 100.309 174.443 102.915C174.354 103.79 173.999 106.794 173.219 108.912C172.995 109.559 172.736 110.074 172.465 110.446C171.799 111.335 171.057 111.339 170.679 111.265C170.284 111.185 169.583 110.884 169.3 109.738C169.177 109.235 169.136 108.592 169.18 107.826C169.335 105.097 170.237 102.211 171.109 99.4229C171.325 98.7261 171.538 98.064 171.726 97.4139C171.726 97.4139 171.725 97.4055 171.724 97.3972C172.053 96.3598 172.364 95.3081 172.675 94.2647C173.2 87.7958 173.621 80.8382 173.649 73.9368C173.629 73.3249 173.623 72.6856 173.612 72.0725C173.555 68.393 173.488 64.5868 171.902 61.553C171.41 60.6843 170.791 60.1754 170.177 60.1182C169.528 60.0574 168.794 60.4698 168.107 61.2767C168.107 61.2767 168.1 61.2862 168.093 61.2958C167.491 61.9795 166.904 62.9512 166.394 64.0998C163.004 72.9081 161.994 82.6049 161.103 91.1664L161.072 91.5465C161.004 92.3244 160.937 93.1108 160.88 93.9043C161.852 96.9407 162.767 100.054 163.422 103.195C163.425 103.22 163.429 103.245 163.433 103.27L163.479 103.597C163.843 106.08 164.388 109.826 162.472 111.705C162.316 111.864 162.117 111.97 161.895 112.027C161.303 112.18 160.698 112.07 160.195 111.715C159.124 110.972 158.478 109.144 158.118 105.79C158.115 105.773 158.114 105.765 158.112 105.748C157.808 101.899 158.01 98.0028 158.301 94.1882C157.994 93.2418 157.69 92.3037 157.385 91.3657C156.777 89.5064 156.144 87.5909 155.564 85.6849C155.168 84.4697 154.777 83.2281 154.392 82.0284C153.721 79.905 153.024 77.717 152.308 75.5745C151.075 71.8498 149.612 69.7373 147.962 69.2992C147.163 69.089 146.304 69.4083 145.621 70.1805C143.477 72.7922 143.943 76.823 144.359 80.3829L144.42 80.8095C144.691 83.2975 145.202 86.2719 145.738 89.4219C147.626 100.462 149.978 114.211 145.217 122.208C145.218 122.216 145.202 122.227 145.204 122.235C143.652 124.694 140.902 126.232 137.156 126.768C136.06 126.925 134.885 126.999 133.618 126.976C129.308 126.918 124.288 125.767 120.523 123.976C118.435 122.977 117.129 121.072 116.666 118.313C116.288 116.088 116.457 113.631 116.619 111.243C116.709 109.967 116.792 108.76 116.776 107.695C116.773 107.67 116.77 107.653 116.775 107.627C117.127 98.4599 116.927 87.7583 116.712 76.4186C116.39 59.5028 116.062 42.0075 117.609 28.2473C117.612 28.2127 117.616 28.178 117.626 28.1338C117.756 27.492 117.858 26.8288 117.962 26.1822C118.206 24.6107 118.468 22.9853 119.102 21.5715C119.865 19.8659 121.078 18.6766 122.792 17.9532C125.436 16.8065 131.59 16.7536 136.091 16.7154C137.352 16.7055 138.443 16.6945 139.207 16.662C139.215 16.6608 139.232 16.6585 139.24 16.6573C157.628 16.3898 175.039 17.3463 192.463 19.5899C192.488 19.5863 192.515 19.5995 192.542 19.6042C196.291 20.3395 198.598 22.1434 199.597 25.1332C200.433 27.6342 200.218 30.6613 200.013 33.5844C199.931 34.6803 199.855 35.818 199.833 36.9139C199.625 44.5837 199.677 53.2322 199.74 62.3826C199.777 68.3614 199.824 74.5948 199.778 80.8329C200.739 80.6271 201.65 80.6759 202.448 80.9972C203.717 81.5155 205.214 82.9145 205.122 86.624C205.052 89.0583 204.237 91.7103 203.474 94.0133C202.149 97.9334 200.619 101.849 198.981 105.728C198.66 110.401 198.214 114.861 197.611 118.994C197.602 119.055 197.586 119.117 197.568 119.17C196.907 121.408 195.841 123.268 194.418 124.709C194.402 124.72 194.396 124.738 194.381 124.749C192.987 126.041 191.227 127.104 189.079 127.957C183.677 140.238 179.3 152.294 175.621 163.201C177.603 162.26 179.751 161.586 181.914 161.251C182.047 161.231 182.173 161.213 182.307 161.194C187.743 160.416 192.17 162.548 193.667 166.688C193.851 167.139 194.006 167.561 194.13 167.953C198.915 160.482 204.111 153.199 209.591 146.285C247.244 98.76 301.349 64.1514 370.407 43.4422C416.634 29.5779 468.989 22.0923 526.006 21.1868C526.704 21.1723 527.28 21.7386 527.294 22.4365C527.309 23.1344 526.751 23.7094 526.045 23.7251C497.613 24.1754 470.346 26.2687 444.445 29.9761C418.545 33.6836 394.109 38.9824 371.139 45.8727C302.589 66.4324 248.903 100.751 211.583 147.861C205.786 155.179 200.313 162.911 195.304 170.849C195.277 170.896 195.241 170.944 195.197 170.993C194.576 171.722 193.909 171.715 193.567 171.653C192.583 171.452 192.269 170.456 192.116 169.983C192.07 169.836 192.021 169.672 191.96 169.484C191.799 168.961 191.603 168.306 191.321 167.647C191.317 167.621 191.307 167.606 191.295 167.582C190.725 165.99 189.589 164.847 187.906 164.183C186.342 163.57 184.366 163.418 182.333 163.76C182.333 163.76 182.324 163.761 182.316 163.762C179.402 164.214 176.695 165.276 174.434 166.769C173.791 168.722 173.16 170.63 172.563 172.483C172.565 172.499 172.55 172.51 172.552 172.527L172.449 172.815C171.609 175.12 170.569 177.992 168.552 179.101C168.417 179.171 168.271 179.226 168.121 179.248L168.14 179.262ZM168.509 174.207C168.302 174.911 168.196 175.6 168.169 176.125C168.971 175.054 169.618 173.254 170.091 171.966L170.189 171.696C170.35 171.212 170.51 170.719 170.669 170.219C169.7 171.441 168.962 172.785 168.517 174.206L168.509 174.207ZM195.835 113.025C194.963 114.985 194.072 116.931 193.196 118.857C192.372 120.674 191.528 122.528 190.701 124.379C191.423 123.943 192.079 123.456 192.66 122.921C193.762 121.798 194.602 120.329 195.14 118.545C195.397 116.767 195.629 114.924 195.835 113.025ZM119.33 107.705C119.342 108.865 119.255 110.106 119.162 111.426C118.859 115.746 118.552 120.22 121.629 121.683C125.083 123.332 129.697 124.387 133.664 124.434C135.887 124.465 137.811 124.19 139.401 123.612C141.065 123.016 142.299 122.096 143.065 120.886C147.334 113.684 145.074 100.461 143.255 89.8371C142.714 86.6537 142.198 83.6459 141.908 81.0838L141.848 80.6655C141.414 76.8009 140.853 71.9898 143.697 68.5438C143.704 68.5342 143.712 68.5246 143.719 68.5151C145.04 67.0114 146.87 66.3823 148.617 66.8408C152.041 67.7506 153.739 71.8014 154.727 74.7672C155.446 76.9265 156.144 79.1228 156.825 81.2534C157.21 82.4531 157.601 83.6947 157.997 84.9099C157.997 84.9099 157.999 84.9267 158 84.935C158.291 85.8922 158.591 86.8565 158.908 87.8184C159.761 79.8855 160.927 71.2164 164.046 63.1383C164.052 63.1204 164.058 63.1025 164.073 63.0834C164.684 61.6898 165.424 60.4826 166.193 59.5957C167.428 58.147 168.937 57.4188 170.426 57.5643C171.897 57.7037 173.214 58.6762 174.127 60.2869C174.128 60.2952 174.139 60.3108 174.149 60.3179C176.026 63.8907 176.095 68.1916 176.161 71.9894C176.175 72.6276 176.185 73.2323 176.195 73.837C176.197 73.8537 176.198 73.8621 176.201 73.8788C176.191 76.9106 176.105 79.9448 175.962 82.9444C177.027 79.4116 178.175 75.8669 179.541 72.4104C180.476 70.0572 181.677 67.4182 183.474 65.6073C183.474 65.6073 183.474 65.6073 183.483 65.6061C185.407 63.7258 186.912 63.8091 187.84 64.2056C189.859 65.0775 190.522 68.0387 190.48 70.3069C190.481 70.3152 190.483 70.332 190.484 70.3403C190.132 77.8345 188.802 85.3577 187.513 92.6274C187.384 93.3373 187.256 94.0556 187.137 94.7726C189.226 91.0591 191.699 87.3503 194.729 84.0142C194.729 84.0142 194.737 84.013 194.744 84.0034C195.551 83.1368 196.406 82.4339 197.276 81.8911C197.323 75.3029 197.282 68.7014 197.241 62.3904C197.182 53.2137 197.128 44.5485 197.338 36.8356C197.362 35.6884 197.451 34.5232 197.528 33.3938C197.726 30.5998 197.918 27.9515 197.237 25.932C196.762 24.5232 195.758 22.8145 192.139 22.0948C174.854 19.8739 157.58 18.915 139.338 19.1871C138.531 19.2172 137.432 19.2294 136.154 19.2417C132.36 19.2725 126.018 19.3267 123.849 20.2689C123.849 20.2689 123.84 20.2701 123.832 20.2713C121.457 21.2685 121.024 23.311 120.509 26.5688C120.406 27.2237 120.298 27.8965 120.164 28.573C118.645 42.167 118.974 59.5512 119.289 76.357C119.506 87.7134 119.703 98.4497 119.351 107.677L119.33 107.705ZM160.648 105.521C160.823 107.101 161.031 108.079 161.22 108.683C161.464 107.283 161.158 105.209 160.978 103.946L160.936 103.653C160.803 103.024 160.662 102.395 160.512 101.768C160.514 103.031 160.556 104.28 160.648 105.521ZM199.783 83.4871C199.733 88.3259 199.63 93.155 199.441 97.8516C200.022 96.3087 200.578 94.7693 201.1 93.2264C201.804 91.111 202.555 88.6645 202.614 86.5732C202.639 85.5538 202.53 83.7768 201.515 83.3672C201.108 83.2036 200.498 83.2396 199.784 83.4955L199.783 83.4871Z"
      stroke="#DCEEFA" stroke-width="2" mask="url(#path-2-outside-1_152_28)"/>
  </g>
  <defs>
    <clipPath id="clip0_152_28">
      <path d="M0.25 12C0.25 5.37258 5.62258 0 12.25 0H351C357.627 0 363 5.37258 363 12V150H0.25V12Z" fill="white"/>
    </clipPath>
  </defs>
</svg>
