<?xml version="1.0" encoding="UTF-8"?>
<svg xmlns="http://www.w3.org/2000/svg" version="1.1" viewBox="0 0 1920 540">
  <defs>
    <style>
      .cls-1 {
        fill: #85c5ed;
      }

      .cls-2 {
        fill: #284092;
      }
    </style>
  </defs>
  <!-- Generator: Adobe Illustrator 28.6.0, SVG Export Plug-In . SVG Version: 1.2.0 Build 709)  -->
  <g>
    <g id="Capa_1">
      <g>
        <g>
          <path class="cls-1" d="M947.8,420.6V111.1h65.5v134.7h.4c8-14.5,18.6-25.6,31.9-33.4,13.3-7.8,28.5-11.7,45.6-11.7s40.3,6.4,53.1,19.2c12.9,12.8,19.3,30.6,19.3,53.4v147.3h-65.5v-127.6c0-12-3.3-21.5-9.9-28.6-6.6-7.1-15.6-10.6-27-10.6s-25.9,4.5-34.7,13.6c-8.9,9-13.3,20.8-13.3,35.2v118.1h-65.5Z"/>
          <path class="cls-1" d="M1214.7,407.7c-12.9-12.8-19.3-30.6-19.3-53.4v-147.3h65.5v127.6c0,12,3.3,21.5,9.9,28.6,6.6,7.1,15.6,10.6,27,10.6s25.8-4.5,34.7-13.6c8.8-9,13.3-20.8,13.3-35.2v-118.1h65.5v213.6h-55.3l-9.9-38.8h-.4c-8,14.5-18.7,25.6-32.1,33.4-13.4,7.8-28.7,11.7-45.8,11.7s-40.3-6.4-53.1-19.2Z"/>
          <path class="cls-1" d="M1542.2,414.8c-13-8.1-23.3-19.7-31.1-35h-.4l-9.9,40.9h-54.8V111.1h65.5v136.8h.4c7.7-15.3,18.1-27,31.1-35,13-8.1,27.9-12.1,44.8-12.1s35.7,4.7,50.6,14.2c14.8,9.5,26.4,22.7,34.7,39.8,8.3,17.1,12.4,36.8,12.4,59s-4.1,41.9-12.4,59c-8.3,17.1-19.9,30.4-34.7,39.8-14.9,9.5-31.7,14.2-50.6,14.2s-32.6-4-45.6-12.1ZM1604.4,356.1c10.4-11.3,15.6-25.4,15.6-42.3s-5.2-31.1-15.6-42.3c-10.4-11.3-23.8-16.9-40.1-16.9s-29.2,5.6-39.6,16.9c-10.4,11.3-15.6,25.4-15.6,42.3s5.2,30.7,15.6,42.1c10.4,11.4,23.6,17.1,39.6,17.1s29.6-5.6,40.1-16.9Z"/>
        </g>
        <g>
          <path class="cls-2" d="M198.1,412.7c-14.9-9.5-26.4-22.7-34.7-39.8-8.3-17.1-12.4-36.8-12.4-59s4.1-41.9,12.4-59c8.3-17.1,19.8-30.4,34.7-39.8,14.8-9.5,31.7-14.2,50.6-14.2s31.8,4,44.8,12.1c13,8.1,23.3,19.7,31.1,35h.4V111.1h65.5v309.5h-54.8l-9.9-40.9h-.4c-7.7,15.3-18.1,27-31.3,35-13.1,8.1-28.3,12.1-45.4,12.1s-35.7-4.7-50.6-14.2ZM311.9,356.1c10.4-11.3,15.6-25.4,15.6-42.3s-5.2-31.1-15.6-42.3c-10.4-11.3-23.8-16.9-40.1-16.9s-29.3,5.6-39.8,16.9c-10.6,11.3-15.8,25.4-15.8,42.3s5.3,31.1,15.8,42.3c10.6,11.3,23.8,16.9,39.8,16.9s29.6-5.6,40.1-16.9Z"/>
          <path class="cls-2" d="M475.3,414.8c-18.3-9.5-32.5-22.9-42.6-40.3-10.1-17.4-15.2-37.6-15.2-60.7s5.1-43.3,15.2-60.7c10.1-17.4,24.3-30.8,42.6-40.3,18.3-9.5,39.6-14.2,63.8-14.2s45.6,4.7,64,14.2c18.4,9.5,32.7,22.9,42.8,40.3,10.1,17.4,15.2,37.6,15.2,60.7s-5.1,43.3-15.2,60.7c-10.1,17.4-24.4,30.8-42.8,40.3-18.4,9.5-39.8,14.2-64,14.2s-45.6-4.7-63.8-14.2ZM581.1,359.3c10.3-11.1,15.4-26.3,15.4-45.5s-5.1-34.3-15.4-45.5c-10.3-11.1-24.3-16.7-42-16.7s-31.7,5.6-42,16.7c-10.3,11.1-15.4,26.3-15.4,45.5s5.1,34.4,15.4,45.5c10.3,11.1,24.3,16.7,42,16.7s31.7-5.6,42-16.7Z"/>
          <path class="cls-2" d="M736.8,414.5c-17.9-9.6-31.7-23.2-41.6-40.7-9.9-17.5-14.8-37.5-14.8-60.1s4.8-42.5,14.4-60.1c9.6-17.5,23-31.1,40.3-40.7,17.3-9.6,37.2-14.4,59.8-14.4s51.3,7.3,70.9,21.9c19.6,14.6,31.8,33.9,36.6,57.8l-59.5,15c-2.3-13.6-7.7-24.2-16.3-31.7-8.6-7.5-18.6-11.3-30-11.3s-27.1,5.8-36.6,17.5c-9.6,11.7-14.4,27-14.4,45.9.3,18.9,5.6,34.2,15.8,45.9,10.3,11.7,23.4,17.5,39.4,17.5s25.5-4.6,35.3-13.8c9.9-9.2,15.6-21,17.4-35.5l60.8,8.3c-2,18.1-8.2,34.1-18.6,48.2-10.4,14-24.1,25-40.9,32.7-16.9,7.8-35.6,11.7-56.1,11.7s-44.1-4.8-61.9-14.4Z"/>
          <ellipse class="cls-2" cx="1730.5" cy="391.4" rx="38.5" ry="37.5"/>
        </g>
      </g>
    </g>
  </g>
</svg>