<?xml version="1.0" encoding="UTF-8"?>
<svg xmlns="http://www.w3.org/2000/svg" version="1.1" viewBox="0 0 1000 1027.2">
  <defs>
    <style>
      .cls-1 {
        fill: #F5F5F7;
      }

      .cls-2 {
        fill: #284092;
      }
    </style>
  </defs>
  <!-- Generator: Adobe Illustrator 28.6.0, SVG Export Plug-In . SVG Version: 1.2.0 Build 709)  -->
  <g>
    <g id="Capa_1">
      <g>
        <circle class="cls-1" cx="465.8" cy="874.3" r="50.1"/>
        <path class="cls-2" d="M791.8,276.6c-72-80-170.2-138.7-269.3-161.1-5.8-1.3-58.7-12.8-123.9-12.8s-22.8.3-34.6,1.1c-109.5,7.3-189.4,50-231.3,123.5-31.3,55-38.4,123.3-20.5,197.4,9,37.3,22.2,68.1,31.5,87.1-19.4,25.8-32.8,54.7-39.3,86-11.3,53.7-1,114,29,169.8,27.4,51.1,68.6,94.5,116,122.1,23.7,13.8,50.3,24.4,79.1,31.4,3.5.9,7.1,1.3,10.6,1.3,20.8,0,38.7-14.1,43.6-34.3,2.8-11.7.9-23.7-5.3-34-6.2-10.3-16.1-17.5-27.8-20.3-20.4-5-38.9-12.2-55.1-21.7-61.4-35.8-118-120.9-102.3-195.8,18.9-89.8,137.9-138.3,240.4-138.3s29.5,1,42.9,3.1c61.5,9.4,102.1,30.2,111.3,57.1,5.5,16,4,41-6.9,51.5-6.4,6.1-19.1,9.3-36.9,9.3s-30.7-2-49.4-6c-47.9-10.2-100.9-30.9-140.3-46.4-18-7-33.5-13.1-45.4-16.9-8.7-2.8-15.2-4.4-21.3-5.1-2.6-.3-5.2-.5-7.7-.5-23.4,0-38.2,14.2-44.4,27.4-3.5,7.6-12.9,34.5,15.5,59.5,4.7,4.2,10.4,8.3,18.3,14.1,12.2,8.9,27.5,20.1,42.8,34.7,33,31.4,58.5,71.6,75.5,119.5,6.4,17.9,23.4,29.9,42.3,29.9s10.2-.9,15.1-2.6c23.3-8.3,35.5-34.1,27.3-57.4-10-28-22.4-54.3-37.1-78.3,42.2,12.3,77.9,18.2,108.6,18.2s75.5-11.6,99.3-34.3c41.3-39.5,44.4-103.2,29.8-145.6-14.7-42.7-58.3-97.6-182.7-116.7-17.8-2.7-36.7-4.1-56.1-4.1-57.1,0-116.8,11.9-168,33.4-18.5,7.8-35.6,16.7-51.2,26.6-17.2-43.4-36.7-117.3-3.1-176.4,37.1-65.2,122.7-78.9,188-78.9s103.3,10.2,103.8,10.3c80.2,18.1,163.4,68,222.3,133.5,62.4,69.4,92.2,148.1,83.7,221.7-12.3,106.1-107.7,206.5-243.2,255.8-11.3,4.1-20.3,12.4-25.4,23.2-5.1,10.9-5.6,23.1-1.5,34.4,6.4,17.7,23.4,29.6,42.2,29.6s10.4-.9,15.4-2.7c76.9-28,145.4-71.1,198-124.6,59.3-60.3,95.2-131.4,103.7-205.4,11.5-99.6-26.2-203.4-106.2-292.1Z"/>
      </g>
    </g>
  </g>
</svg>
